%TF.GenerationSoftware,KiCad,Pcbnew,(6.0.4)*%
%TF.CreationDate,2024-08-12T15:42:03+08:00*%
%TF.ProjectId,laser tanks,6c617365-7220-4746-916e-6b732e6b6963,rev?*%
%TF.SameCoordinates,Original*%
%TF.FileFunction,Copper,L1,Top*%
%TF.FilePolarity,Positive*%
%FSLAX46Y46*%
G04 Gerber Fmt 4.6, Leading zero omitted, Abs format (unit mm)*
G04 Created by KiCad (PCBNEW (6.0.4)) date 2024-08-12 15:42:03*
%MOMM*%
%LPD*%
G01*
G04 APERTURE LIST*
G04 Aperture macros list*
%AMRoundRect*
0 Rectangle with rounded corners*
0 $1 Rounding radius*
0 $2 $3 $4 $5 $6 $7 $8 $9 X,Y pos of 4 corners*
0 Add a 4 corners polygon primitive as box body*
4,1,4,$2,$3,$4,$5,$6,$7,$8,$9,$2,$3,0*
0 Add four circle primitives for the rounded corners*
1,1,$1+$1,$2,$3*
1,1,$1+$1,$4,$5*
1,1,$1+$1,$6,$7*
1,1,$1+$1,$8,$9*
0 Add four rect primitives between the rounded corners*
20,1,$1+$1,$2,$3,$4,$5,0*
20,1,$1+$1,$4,$5,$6,$7,0*
20,1,$1+$1,$6,$7,$8,$9,0*
20,1,$1+$1,$8,$9,$2,$3,0*%
G04 Aperture macros list end*
%TA.AperFunction,NonConductor*%
%ADD10C,0.200000*%
%TD*%
%TA.AperFunction,ComponentPad*%
%ADD11C,1.440000*%
%TD*%
%TA.AperFunction,SMDPad,CuDef*%
%ADD12RoundRect,0.150000X-0.587500X-0.150000X0.587500X-0.150000X0.587500X0.150000X-0.587500X0.150000X0*%
%TD*%
%TA.AperFunction,ComponentPad*%
%ADD13R,1.800000X1.800000*%
%TD*%
%TA.AperFunction,ComponentPad*%
%ADD14C,1.800000*%
%TD*%
%TA.AperFunction,SMDPad,CuDef*%
%ADD15RoundRect,0.250000X-0.312500X-0.625000X0.312500X-0.625000X0.312500X0.625000X-0.312500X0.625000X0*%
%TD*%
%TA.AperFunction,ComponentPad*%
%ADD16R,1.700000X1.700000*%
%TD*%
%TA.AperFunction,ComponentPad*%
%ADD17O,1.700000X1.700000*%
%TD*%
%TA.AperFunction,ViaPad*%
%ADD18C,0.800000*%
%TD*%
%TA.AperFunction,Conductor*%
%ADD19C,0.250000*%
%TD*%
G04 APERTURE END LIST*
D10*
X100500000Y-86500000D02*
X100500000Y-114500000D01*
X114500000Y-100500000D02*
X86500000Y-100500000D01*
X129500000Y-86500000D02*
X129500000Y-114500000D01*
X143500000Y-100500000D02*
X115500000Y-100500000D01*
D11*
%TO.P,RV1,1,1*%
%TO.N,VCC*%
X116475000Y-102675000D03*
%TO.P,RV1,2,2*%
%TO.N,Net-(RV1-Pad2)*%
X118975000Y-105175000D03*
%TO.P,RV1,3,3*%
%TO.N,GND*%
X121475000Y-102675000D03*
%TD*%
D12*
%TO.P,Q3,1,B*%
%TO.N,Net-(Q1-Pad2)*%
X116562500Y-106550000D03*
%TO.P,Q3,2,E*%
%TO.N,GND*%
X116562500Y-108450000D03*
%TO.P,Q3,3,C*%
%TO.N,Net-(Q1-Pad1)*%
X118437500Y-107500000D03*
%TD*%
D13*
%TO.P,Q2,1,C*%
%TO.N,Net-(Q1-Pad1)*%
X124000000Y-108770000D03*
D14*
%TO.P,Q2,2,E*%
%TO.N,Net-(Q1-Pad2)*%
X124000000Y-106230000D03*
%TD*%
D13*
%TO.P,Q1,1,C*%
%TO.N,Net-(Q1-Pad1)*%
X106000000Y-108770000D03*
D14*
%TO.P,Q1,2,E*%
%TO.N,Net-(Q1-Pad2)*%
X106000000Y-106230000D03*
%TD*%
D15*
%TO.P,R1,1*%
%TO.N,VCC*%
X110537500Y-108000000D03*
%TO.P,R1,2*%
%TO.N,Net-(Q1-Pad1)*%
X113462500Y-108000000D03*
%TD*%
D16*
%TO.P,J1,1,Pin_1*%
%TO.N,GND*%
X117500000Y-111500000D03*
D17*
%TO.P,J1,2,Pin_2*%
%TO.N,Net-(J1-Pad2)*%
X114960000Y-111500000D03*
%TO.P,J1,3,Pin_3*%
%TO.N,VCC*%
X112420000Y-111500000D03*
%TD*%
D18*
%TO.N,Net-(Q1-Pad1)*%
X111000000Y-105000000D03*
%TD*%
D19*
%TO.N,Net-(Q1-Pad1)*%
X111000000Y-105537500D02*
X113462500Y-108000000D01*
X111000000Y-105000000D02*
X111000000Y-105537500D01*
%TO.N,Net-(Q1-Pad2)*%
X108230000Y-104000000D02*
X106000000Y-106230000D01*
X114012500Y-104000000D02*
X108230000Y-104000000D01*
X116562500Y-106550000D02*
X114012500Y-104000000D01*
%TO.N,Net-(Q1-Pad1)*%
X112262980Y-106800480D02*
X107969520Y-106800480D01*
X107969520Y-106800480D02*
X106000000Y-108770000D01*
X113462500Y-108000000D02*
X112262980Y-106800480D01*
X122730000Y-107500000D02*
X118437500Y-107500000D01*
X124000000Y-108770000D02*
X122730000Y-107500000D01*
X124185000Y-108585000D02*
X124000000Y-108770000D01*
X113962500Y-107500000D02*
X118437500Y-107500000D01*
X113462500Y-108000000D02*
X113962500Y-107500000D01*
%TO.N,VCC*%
X110537500Y-108000000D02*
X112420000Y-109882500D01*
X112420000Y-109882500D02*
X112420000Y-111500000D01*
%TO.N,Net-(Q1-Pad2)*%
X116562500Y-106550000D02*
X124495000Y-106550000D01*
%TD*%
%TA.AperFunction,Conductor*%
%TO.N,GND*%
G36*
X128933621Y-101028502D02*
G01*
X128980114Y-101082158D01*
X128991500Y-101134500D01*
X128991500Y-113865500D01*
X128971498Y-113933621D01*
X128917842Y-113980114D01*
X128865500Y-113991500D01*
X101134500Y-113991500D01*
X101066379Y-113971498D01*
X101019886Y-113917842D01*
X101008500Y-113865500D01*
X101008500Y-112054568D01*
X102437382Y-112054568D01*
X102466208Y-112303699D01*
X102467587Y-112308573D01*
X102467588Y-112308577D01*
X102515315Y-112477240D01*
X102534494Y-112545017D01*
X102536628Y-112549592D01*
X102536630Y-112549599D01*
X102638347Y-112767731D01*
X102640484Y-112772313D01*
X102643326Y-112776494D01*
X102643326Y-112776495D01*
X102778605Y-112975552D01*
X102778608Y-112975556D01*
X102781451Y-112979739D01*
X102784928Y-112983416D01*
X102784929Y-112983417D01*
X102885238Y-113089491D01*
X102953767Y-113161959D01*
X102957793Y-113165037D01*
X102957794Y-113165038D01*
X103148981Y-113311212D01*
X103148985Y-113311215D01*
X103153001Y-113314285D01*
X103374026Y-113432797D01*
X103378807Y-113434443D01*
X103378811Y-113434445D01*
X103604538Y-113512169D01*
X103611156Y-113514448D01*
X103714689Y-113532331D01*
X103854380Y-113556460D01*
X103854386Y-113556461D01*
X103858290Y-113557135D01*
X103862251Y-113557315D01*
X103862252Y-113557315D01*
X103886931Y-113558436D01*
X103886950Y-113558436D01*
X103888350Y-113558500D01*
X104063015Y-113558500D01*
X104065523Y-113558298D01*
X104065528Y-113558298D01*
X104244944Y-113543863D01*
X104244949Y-113543862D01*
X104249985Y-113543457D01*
X104254893Y-113542252D01*
X104254896Y-113542251D01*
X104488625Y-113484841D01*
X104493539Y-113483634D01*
X104498191Y-113481659D01*
X104498195Y-113481658D01*
X104719741Y-113387617D01*
X104719742Y-113387617D01*
X104724396Y-113385641D01*
X104936615Y-113252000D01*
X105124738Y-113086147D01*
X105283924Y-112892351D01*
X105410078Y-112675596D01*
X105413036Y-112667892D01*
X105485946Y-112477954D01*
X105499955Y-112441461D01*
X105507739Y-112404205D01*
X105550206Y-112200921D01*
X105551241Y-112195967D01*
X105553437Y-112147625D01*
X105557662Y-112054568D01*
X105562618Y-111945432D01*
X105533792Y-111696301D01*
X105531929Y-111689715D01*
X105466884Y-111459852D01*
X105466883Y-111459850D01*
X105465506Y-111454983D01*
X105463372Y-111450408D01*
X105463370Y-111450401D01*
X105361653Y-111232269D01*
X105361651Y-111232265D01*
X105359516Y-111227687D01*
X105356674Y-111223505D01*
X105221395Y-111024448D01*
X105221392Y-111024444D01*
X105218549Y-111020261D01*
X105117925Y-110913853D01*
X105049713Y-110841721D01*
X105046233Y-110838041D01*
X105037514Y-110831375D01*
X104851019Y-110688788D01*
X104851015Y-110688785D01*
X104846999Y-110685715D01*
X104625974Y-110567203D01*
X104621193Y-110565557D01*
X104621189Y-110565555D01*
X104393633Y-110487201D01*
X104388844Y-110485552D01*
X104285311Y-110467669D01*
X104145620Y-110443540D01*
X104145614Y-110443539D01*
X104141710Y-110442865D01*
X104137749Y-110442685D01*
X104137748Y-110442685D01*
X104113069Y-110441564D01*
X104113050Y-110441564D01*
X104111650Y-110441500D01*
X103936985Y-110441500D01*
X103934477Y-110441702D01*
X103934472Y-110441702D01*
X103755056Y-110456137D01*
X103755051Y-110456138D01*
X103750015Y-110456543D01*
X103745107Y-110457748D01*
X103745104Y-110457749D01*
X103545097Y-110506876D01*
X103506461Y-110516366D01*
X103501809Y-110518341D01*
X103501805Y-110518342D01*
X103280259Y-110612383D01*
X103275604Y-110614359D01*
X103063385Y-110748000D01*
X102875262Y-110913853D01*
X102716076Y-111107649D01*
X102589922Y-111324404D01*
X102500045Y-111558539D01*
X102448759Y-111804033D01*
X102437382Y-112054568D01*
X101008500Y-112054568D01*
X101008500Y-106195469D01*
X104587095Y-106195469D01*
X104587392Y-106200622D01*
X104587392Y-106200625D01*
X104592888Y-106295938D01*
X104600427Y-106426697D01*
X104601564Y-106431743D01*
X104601565Y-106431749D01*
X104633741Y-106574523D01*
X104651346Y-106652642D01*
X104653288Y-106657424D01*
X104653289Y-106657428D01*
X104723231Y-106829673D01*
X104738484Y-106867237D01*
X104859501Y-107064719D01*
X104862882Y-107068622D01*
X104971304Y-107193788D01*
X105000786Y-107258373D01*
X104990671Y-107328646D01*
X104944170Y-107382294D01*
X104920296Y-107394267D01*
X104864515Y-107415179D01*
X104853295Y-107419385D01*
X104736739Y-107506739D01*
X104649385Y-107623295D01*
X104598255Y-107759684D01*
X104591500Y-107821866D01*
X104591500Y-109718134D01*
X104598255Y-109780316D01*
X104649385Y-109916705D01*
X104736739Y-110033261D01*
X104853295Y-110120615D01*
X104989684Y-110171745D01*
X105051866Y-110178500D01*
X106948134Y-110178500D01*
X107010316Y-110171745D01*
X107146705Y-110120615D01*
X107263261Y-110033261D01*
X107350615Y-109916705D01*
X107401745Y-109780316D01*
X107408500Y-109718134D01*
X107408500Y-108309594D01*
X107428502Y-108241474D01*
X107445405Y-108220499D01*
X108195021Y-107470884D01*
X108257333Y-107436859D01*
X108284116Y-107433980D01*
X109340500Y-107433980D01*
X109408621Y-107453982D01*
X109455114Y-107507638D01*
X109466500Y-107559980D01*
X109466500Y-108675400D01*
X109466837Y-108678646D01*
X109466837Y-108678650D01*
X109476162Y-108768519D01*
X109477474Y-108781166D01*
X109479655Y-108787702D01*
X109479655Y-108787704D01*
X109507185Y-108870221D01*
X109533450Y-108948946D01*
X109626522Y-109099348D01*
X109751697Y-109224305D01*
X109757927Y-109228145D01*
X109757928Y-109228146D01*
X109895090Y-109312694D01*
X109902262Y-109317115D01*
X109982005Y-109343564D01*
X110063611Y-109370632D01*
X110063613Y-109370632D01*
X110070139Y-109372797D01*
X110076975Y-109373497D01*
X110076978Y-109373498D01*
X110120031Y-109377909D01*
X110174600Y-109383500D01*
X110900400Y-109383500D01*
X110903644Y-109383163D01*
X110903652Y-109383163D01*
X110953699Y-109377970D01*
X111023520Y-109390835D01*
X111055797Y-109414202D01*
X111749595Y-110108000D01*
X111783621Y-110170312D01*
X111786500Y-110197095D01*
X111786500Y-110221692D01*
X111766498Y-110289813D01*
X111718683Y-110333453D01*
X111693607Y-110346507D01*
X111689474Y-110349610D01*
X111689471Y-110349612D01*
X111545446Y-110457749D01*
X111514965Y-110480635D01*
X111481973Y-110515159D01*
X111389064Y-110612383D01*
X111360629Y-110642138D01*
X111357720Y-110646403D01*
X111357714Y-110646411D01*
X111290254Y-110745304D01*
X111234743Y-110826680D01*
X111195831Y-110910509D01*
X111142943Y-111024448D01*
X111140688Y-111029305D01*
X111080989Y-111244570D01*
X111057251Y-111466695D01*
X111057548Y-111471848D01*
X111057548Y-111471851D01*
X111062832Y-111563491D01*
X111070110Y-111689715D01*
X111071247Y-111694761D01*
X111071248Y-111694767D01*
X111085606Y-111758475D01*
X111119222Y-111907639D01*
X111203266Y-112114616D01*
X111250020Y-112190912D01*
X111317291Y-112300688D01*
X111319987Y-112305088D01*
X111466250Y-112473938D01*
X111638126Y-112616632D01*
X111831000Y-112729338D01*
X112039692Y-112809030D01*
X112044760Y-112810061D01*
X112044763Y-112810062D01*
X112152017Y-112831883D01*
X112258597Y-112853567D01*
X112263772Y-112853757D01*
X112263774Y-112853757D01*
X112476673Y-112861564D01*
X112476677Y-112861564D01*
X112481837Y-112861753D01*
X112486957Y-112861097D01*
X112486959Y-112861097D01*
X112698288Y-112834025D01*
X112698289Y-112834025D01*
X112703416Y-112833368D01*
X112708366Y-112831883D01*
X112912429Y-112770661D01*
X112912434Y-112770659D01*
X112917384Y-112769174D01*
X113117994Y-112670896D01*
X113299860Y-112541173D01*
X113458096Y-112383489D01*
X113511926Y-112308577D01*
X113588453Y-112202077D01*
X113589776Y-112203028D01*
X113636645Y-112159857D01*
X113706580Y-112147625D01*
X113772026Y-112175144D01*
X113799875Y-112206994D01*
X113859987Y-112305088D01*
X114006250Y-112473938D01*
X114178126Y-112616632D01*
X114371000Y-112729338D01*
X114579692Y-112809030D01*
X114584760Y-112810061D01*
X114584763Y-112810062D01*
X114692017Y-112831883D01*
X114798597Y-112853567D01*
X114803772Y-112853757D01*
X114803774Y-112853757D01*
X115016673Y-112861564D01*
X115016677Y-112861564D01*
X115021837Y-112861753D01*
X115026957Y-112861097D01*
X115026959Y-112861097D01*
X115238288Y-112834025D01*
X115238289Y-112834025D01*
X115243416Y-112833368D01*
X115248366Y-112831883D01*
X115452429Y-112770661D01*
X115452434Y-112770659D01*
X115457384Y-112769174D01*
X115657994Y-112670896D01*
X115839860Y-112541173D01*
X115907331Y-112473938D01*
X115948479Y-112432933D01*
X116010851Y-112399017D01*
X116081658Y-112404205D01*
X116138419Y-112446851D01*
X116155401Y-112477954D01*
X116196676Y-112588054D01*
X116205214Y-112603649D01*
X116281715Y-112705724D01*
X116294276Y-112718285D01*
X116396351Y-112794786D01*
X116411946Y-112803324D01*
X116532394Y-112848478D01*
X116547649Y-112852105D01*
X116598514Y-112857631D01*
X116605328Y-112858000D01*
X117227885Y-112858000D01*
X117243124Y-112853525D01*
X117244329Y-112852135D01*
X117246000Y-112844452D01*
X117246000Y-112839884D01*
X117754000Y-112839884D01*
X117758475Y-112855123D01*
X117759865Y-112856328D01*
X117767548Y-112857999D01*
X118394669Y-112857999D01*
X118401490Y-112857629D01*
X118452352Y-112852105D01*
X118467604Y-112848479D01*
X118588054Y-112803324D01*
X118603649Y-112794786D01*
X118705724Y-112718285D01*
X118718285Y-112705724D01*
X118794786Y-112603649D01*
X118803324Y-112588054D01*
X118848478Y-112467606D01*
X118852105Y-112452351D01*
X118857631Y-112401486D01*
X118858000Y-112394672D01*
X118858000Y-112054568D01*
X124437382Y-112054568D01*
X124466208Y-112303699D01*
X124467587Y-112308573D01*
X124467588Y-112308577D01*
X124515315Y-112477240D01*
X124534494Y-112545017D01*
X124536628Y-112549592D01*
X124536630Y-112549599D01*
X124638347Y-112767731D01*
X124640484Y-112772313D01*
X124643326Y-112776494D01*
X124643326Y-112776495D01*
X124778605Y-112975552D01*
X124778608Y-112975556D01*
X124781451Y-112979739D01*
X124784928Y-112983416D01*
X124784929Y-112983417D01*
X124885238Y-113089491D01*
X124953767Y-113161959D01*
X124957793Y-113165037D01*
X124957794Y-113165038D01*
X125148981Y-113311212D01*
X125148985Y-113311215D01*
X125153001Y-113314285D01*
X125374026Y-113432797D01*
X125378807Y-113434443D01*
X125378811Y-113434445D01*
X125604538Y-113512169D01*
X125611156Y-113514448D01*
X125714689Y-113532331D01*
X125854380Y-113556460D01*
X125854386Y-113556461D01*
X125858290Y-113557135D01*
X125862251Y-113557315D01*
X125862252Y-113557315D01*
X125886931Y-113558436D01*
X125886950Y-113558436D01*
X125888350Y-113558500D01*
X126063015Y-113558500D01*
X126065523Y-113558298D01*
X126065528Y-113558298D01*
X126244944Y-113543863D01*
X126244949Y-113543862D01*
X126249985Y-113543457D01*
X126254893Y-113542252D01*
X126254896Y-113542251D01*
X126488625Y-113484841D01*
X126493539Y-113483634D01*
X126498191Y-113481659D01*
X126498195Y-113481658D01*
X126719741Y-113387617D01*
X126719742Y-113387617D01*
X126724396Y-113385641D01*
X126936615Y-113252000D01*
X127124738Y-113086147D01*
X127283924Y-112892351D01*
X127410078Y-112675596D01*
X127413036Y-112667892D01*
X127485946Y-112477954D01*
X127499955Y-112441461D01*
X127507739Y-112404205D01*
X127550206Y-112200921D01*
X127551241Y-112195967D01*
X127553437Y-112147625D01*
X127557662Y-112054568D01*
X127562618Y-111945432D01*
X127533792Y-111696301D01*
X127531929Y-111689715D01*
X127466884Y-111459852D01*
X127466883Y-111459850D01*
X127465506Y-111454983D01*
X127463372Y-111450408D01*
X127463370Y-111450401D01*
X127361653Y-111232269D01*
X127361651Y-111232265D01*
X127359516Y-111227687D01*
X127356674Y-111223505D01*
X127221395Y-111024448D01*
X127221392Y-111024444D01*
X127218549Y-111020261D01*
X127117925Y-110913853D01*
X127049713Y-110841721D01*
X127046233Y-110838041D01*
X127037514Y-110831375D01*
X126851019Y-110688788D01*
X126851015Y-110688785D01*
X126846999Y-110685715D01*
X126625974Y-110567203D01*
X126621193Y-110565557D01*
X126621189Y-110565555D01*
X126393633Y-110487201D01*
X126388844Y-110485552D01*
X126285311Y-110467669D01*
X126145620Y-110443540D01*
X126145614Y-110443539D01*
X126141710Y-110442865D01*
X126137749Y-110442685D01*
X126137748Y-110442685D01*
X126113069Y-110441564D01*
X126113050Y-110441564D01*
X126111650Y-110441500D01*
X125936985Y-110441500D01*
X125934477Y-110441702D01*
X125934472Y-110441702D01*
X125755056Y-110456137D01*
X125755051Y-110456138D01*
X125750015Y-110456543D01*
X125745107Y-110457748D01*
X125745104Y-110457749D01*
X125545097Y-110506876D01*
X125506461Y-110516366D01*
X125501809Y-110518341D01*
X125501805Y-110518342D01*
X125280259Y-110612383D01*
X125275604Y-110614359D01*
X125063385Y-110748000D01*
X124875262Y-110913853D01*
X124716076Y-111107649D01*
X124589922Y-111324404D01*
X124500045Y-111558539D01*
X124448759Y-111804033D01*
X124437382Y-112054568D01*
X118858000Y-112054568D01*
X118858000Y-111772115D01*
X118853525Y-111756876D01*
X118852135Y-111755671D01*
X118844452Y-111754000D01*
X117772115Y-111754000D01*
X117756876Y-111758475D01*
X117755671Y-111759865D01*
X117754000Y-111767548D01*
X117754000Y-112839884D01*
X117246000Y-112839884D01*
X117246000Y-111227885D01*
X117754000Y-111227885D01*
X117758475Y-111243124D01*
X117759865Y-111244329D01*
X117767548Y-111246000D01*
X118839884Y-111246000D01*
X118855123Y-111241525D01*
X118856328Y-111240135D01*
X118857999Y-111232452D01*
X118857999Y-110605331D01*
X118857629Y-110598510D01*
X118852105Y-110547648D01*
X118848479Y-110532396D01*
X118803324Y-110411946D01*
X118794786Y-110396351D01*
X118718285Y-110294276D01*
X118705724Y-110281715D01*
X118603649Y-110205214D01*
X118588054Y-110196676D01*
X118467606Y-110151522D01*
X118452351Y-110147895D01*
X118401486Y-110142369D01*
X118394672Y-110142000D01*
X117772115Y-110142000D01*
X117756876Y-110146475D01*
X117755671Y-110147865D01*
X117754000Y-110155548D01*
X117754000Y-111227885D01*
X117246000Y-111227885D01*
X117246000Y-110160116D01*
X117241525Y-110144877D01*
X117240135Y-110143672D01*
X117232452Y-110142001D01*
X116605331Y-110142001D01*
X116598510Y-110142371D01*
X116547648Y-110147895D01*
X116532396Y-110151521D01*
X116411946Y-110196676D01*
X116396351Y-110205214D01*
X116294276Y-110281715D01*
X116281715Y-110294276D01*
X116205214Y-110396351D01*
X116196676Y-110411946D01*
X116155297Y-110522322D01*
X116112655Y-110579087D01*
X116046093Y-110603786D01*
X115976744Y-110588578D01*
X115944121Y-110562891D01*
X115893151Y-110506876D01*
X115893145Y-110506870D01*
X115889670Y-110503051D01*
X115885619Y-110499852D01*
X115885615Y-110499848D01*
X115718414Y-110367800D01*
X115718410Y-110367798D01*
X115714359Y-110364598D01*
X115709831Y-110362098D01*
X115593988Y-110298150D01*
X115518789Y-110256638D01*
X115513920Y-110254914D01*
X115513916Y-110254912D01*
X115313087Y-110183795D01*
X115313083Y-110183794D01*
X115308212Y-110182069D01*
X115303119Y-110181162D01*
X115303116Y-110181161D01*
X115093373Y-110143800D01*
X115093367Y-110143799D01*
X115088284Y-110142894D01*
X115014452Y-110141992D01*
X114870081Y-110140228D01*
X114870079Y-110140228D01*
X114864911Y-110140165D01*
X114644091Y-110173955D01*
X114431756Y-110243357D01*
X114401443Y-110259137D01*
X114257975Y-110333822D01*
X114233607Y-110346507D01*
X114229474Y-110349610D01*
X114229471Y-110349612D01*
X114085446Y-110457749D01*
X114054965Y-110480635D01*
X114021973Y-110515159D01*
X113929064Y-110612383D01*
X113900629Y-110642138D01*
X113793201Y-110799621D01*
X113738293Y-110844621D01*
X113667768Y-110852792D01*
X113604021Y-110821538D01*
X113583324Y-110797054D01*
X113502822Y-110672617D01*
X113502820Y-110672614D01*
X113500014Y-110668277D01*
X113349670Y-110503051D01*
X113345619Y-110499852D01*
X113345615Y-110499848D01*
X113178414Y-110367800D01*
X113178410Y-110367798D01*
X113174359Y-110364598D01*
X113169835Y-110362101D01*
X113169831Y-110362098D01*
X113118608Y-110333822D01*
X113068636Y-110283390D01*
X113053500Y-110223513D01*
X113053500Y-109961267D01*
X113054027Y-109950084D01*
X113055702Y-109942591D01*
X113053562Y-109874514D01*
X113053500Y-109870555D01*
X113053500Y-109842644D01*
X113052995Y-109838644D01*
X113052062Y-109826801D01*
X113050922Y-109790530D01*
X113050673Y-109782611D01*
X113045021Y-109763157D01*
X113041013Y-109743800D01*
X113039468Y-109731570D01*
X113039468Y-109731569D01*
X113038474Y-109723703D01*
X113034916Y-109714717D01*
X113022196Y-109682588D01*
X113018351Y-109671358D01*
X113008229Y-109636517D01*
X113008229Y-109636516D01*
X113006018Y-109628907D01*
X113001985Y-109622088D01*
X113001983Y-109622083D01*
X112995707Y-109611472D01*
X112987012Y-109593724D01*
X112979552Y-109574883D01*
X112975356Y-109569107D01*
X112960143Y-109500118D01*
X112984765Y-109433528D01*
X113041481Y-109390820D01*
X113093128Y-109384121D01*
X113093185Y-109383008D01*
X113096402Y-109383172D01*
X113099600Y-109383500D01*
X113825400Y-109383500D01*
X113828646Y-109383163D01*
X113828650Y-109383163D01*
X113924308Y-109373238D01*
X113924312Y-109373237D01*
X113931166Y-109372526D01*
X113937702Y-109370345D01*
X113937704Y-109370345D01*
X114069806Y-109326272D01*
X114098946Y-109316550D01*
X114249348Y-109223478D01*
X114374305Y-109098303D01*
X114467115Y-108947738D01*
X114522797Y-108779861D01*
X114529353Y-108715871D01*
X115323456Y-108715871D01*
X115364107Y-108855790D01*
X115370352Y-108870221D01*
X115446911Y-108999678D01*
X115456551Y-109012104D01*
X115562896Y-109118449D01*
X115575322Y-109128089D01*
X115704779Y-109204648D01*
X115719210Y-109210893D01*
X115865065Y-109253269D01*
X115877667Y-109255570D01*
X115906084Y-109257807D01*
X115911014Y-109258000D01*
X116290385Y-109258000D01*
X116305624Y-109253525D01*
X116306829Y-109252135D01*
X116308500Y-109244452D01*
X116308500Y-109239884D01*
X116816500Y-109239884D01*
X116820975Y-109255123D01*
X116822365Y-109256328D01*
X116830048Y-109257999D01*
X117213984Y-109257999D01*
X117218920Y-109257805D01*
X117247336Y-109255570D01*
X117259931Y-109253270D01*
X117405790Y-109210893D01*
X117420221Y-109204648D01*
X117549678Y-109128089D01*
X117562104Y-109118449D01*
X117668449Y-109012104D01*
X117678089Y-108999678D01*
X117754648Y-108870221D01*
X117760893Y-108855790D01*
X117799939Y-108721395D01*
X117799899Y-108707294D01*
X117792630Y-108704000D01*
X116834615Y-108704000D01*
X116819376Y-108708475D01*
X116818171Y-108709865D01*
X116816500Y-108717548D01*
X116816500Y-109239884D01*
X116308500Y-109239884D01*
X116308500Y-108722115D01*
X116304025Y-108706876D01*
X116302635Y-108705671D01*
X116294952Y-108704000D01*
X115338122Y-108704000D01*
X115324591Y-108707973D01*
X115323456Y-108715871D01*
X114529353Y-108715871D01*
X114533500Y-108675400D01*
X114533500Y-108259500D01*
X114553502Y-108191379D01*
X114607158Y-108144886D01*
X114659500Y-108133500D01*
X115217099Y-108133500D01*
X115285220Y-108153502D01*
X115322903Y-108191078D01*
X115323480Y-108191970D01*
X115332371Y-108196000D01*
X117445158Y-108196000D01*
X117509297Y-108213547D01*
X117586399Y-108259145D01*
X117594010Y-108261356D01*
X117594012Y-108261357D01*
X117646231Y-108276528D01*
X117746169Y-108305562D01*
X117752574Y-108306066D01*
X117752579Y-108306067D01*
X117781042Y-108308307D01*
X117781050Y-108308307D01*
X117783498Y-108308500D01*
X119091502Y-108308500D01*
X119093950Y-108308307D01*
X119093958Y-108308307D01*
X119122421Y-108306067D01*
X119122426Y-108306066D01*
X119128831Y-108305562D01*
X119228769Y-108276528D01*
X119280988Y-108261357D01*
X119280990Y-108261356D01*
X119288601Y-108259145D01*
X119368319Y-108212000D01*
X119424980Y-108178491D01*
X119424983Y-108178489D01*
X119431807Y-108174453D01*
X119437415Y-108168845D01*
X119443675Y-108163989D01*
X119444844Y-108165496D01*
X119498167Y-108136379D01*
X119524950Y-108133500D01*
X122415406Y-108133500D01*
X122483527Y-108153502D01*
X122504501Y-108170405D01*
X122554595Y-108220499D01*
X122588621Y-108282811D01*
X122591500Y-108309594D01*
X122591500Y-109718134D01*
X122598255Y-109780316D01*
X122649385Y-109916705D01*
X122736739Y-110033261D01*
X122853295Y-110120615D01*
X122989684Y-110171745D01*
X123051866Y-110178500D01*
X124948134Y-110178500D01*
X125010316Y-110171745D01*
X125146705Y-110120615D01*
X125263261Y-110033261D01*
X125350615Y-109916705D01*
X125401745Y-109780316D01*
X125408500Y-109718134D01*
X125408500Y-107821866D01*
X125401745Y-107759684D01*
X125350615Y-107623295D01*
X125263261Y-107506739D01*
X125146705Y-107419385D01*
X125138296Y-107416233D01*
X125138295Y-107416232D01*
X125079804Y-107394305D01*
X125023039Y-107351664D01*
X124998339Y-107285103D01*
X125013546Y-107215754D01*
X125035093Y-107187073D01*
X125072636Y-107149660D01*
X125072640Y-107149655D01*
X125076303Y-107146005D01*
X125211458Y-106957917D01*
X125258641Y-106862450D01*
X125311784Y-106754922D01*
X125311785Y-106754920D01*
X125314078Y-106750280D01*
X125381408Y-106528671D01*
X125411640Y-106299041D01*
X125413327Y-106230000D01*
X125397196Y-106033790D01*
X125394773Y-106004318D01*
X125394772Y-106004312D01*
X125394349Y-105999167D01*
X125357266Y-105851534D01*
X125339184Y-105779544D01*
X125339183Y-105779540D01*
X125337925Y-105774533D01*
X125335866Y-105769797D01*
X125247630Y-105566868D01*
X125247628Y-105566865D01*
X125245570Y-105562131D01*
X125119764Y-105367665D01*
X124963887Y-105196358D01*
X124959836Y-105193159D01*
X124959832Y-105193155D01*
X124786177Y-105056011D01*
X124786172Y-105056008D01*
X124782123Y-105052810D01*
X124777607Y-105050317D01*
X124777604Y-105050315D01*
X124583879Y-104943373D01*
X124583875Y-104943371D01*
X124579355Y-104940876D01*
X124574486Y-104939152D01*
X124574482Y-104939150D01*
X124365903Y-104865288D01*
X124365899Y-104865287D01*
X124361028Y-104863562D01*
X124355935Y-104862655D01*
X124355932Y-104862654D01*
X124138095Y-104823851D01*
X124138089Y-104823850D01*
X124133006Y-104822945D01*
X124060096Y-104822054D01*
X123906581Y-104820179D01*
X123906579Y-104820179D01*
X123901411Y-104820116D01*
X123672464Y-104855150D01*
X123452314Y-104927106D01*
X123447726Y-104929494D01*
X123447722Y-104929496D01*
X123312285Y-105000000D01*
X123246872Y-105034052D01*
X123242739Y-105037155D01*
X123242736Y-105037157D01*
X123217625Y-105056011D01*
X123061655Y-105173117D01*
X122901639Y-105340564D01*
X122898725Y-105344836D01*
X122898724Y-105344837D01*
X122868501Y-105389142D01*
X122771119Y-105531899D01*
X122673602Y-105741981D01*
X122672223Y-105746952D01*
X122672222Y-105746956D01*
X122662055Y-105783618D01*
X122655449Y-105807441D01*
X122650809Y-105824171D01*
X122613330Y-105884469D01*
X122549201Y-105914933D01*
X122529391Y-105916500D01*
X120182513Y-105916500D01*
X120114392Y-105896498D01*
X120067899Y-105842842D01*
X120057795Y-105772568D01*
X120068318Y-105737250D01*
X120131499Y-105601759D01*
X120131500Y-105601757D01*
X120133822Y-105596777D01*
X120143106Y-105562131D01*
X120188034Y-105394457D01*
X120188034Y-105394455D01*
X120189458Y-105389142D01*
X120208193Y-105175000D01*
X120189458Y-104960858D01*
X120164204Y-104866610D01*
X120135245Y-104758533D01*
X120135244Y-104758531D01*
X120133822Y-104753223D01*
X120121814Y-104727471D01*
X120045299Y-104563385D01*
X120045297Y-104563382D01*
X120042976Y-104558404D01*
X119919681Y-104382319D01*
X119767681Y-104230319D01*
X119591597Y-104107024D01*
X119586619Y-104104703D01*
X119586616Y-104104701D01*
X119401759Y-104018501D01*
X119401758Y-104018500D01*
X119396777Y-104016178D01*
X119391469Y-104014756D01*
X119391467Y-104014755D01*
X119194457Y-103961966D01*
X119194455Y-103961966D01*
X119189142Y-103960542D01*
X118975000Y-103941807D01*
X118760858Y-103960542D01*
X118755545Y-103961966D01*
X118755543Y-103961966D01*
X118558533Y-104014755D01*
X118558531Y-104014756D01*
X118553223Y-104016178D01*
X118548243Y-104018500D01*
X118548241Y-104018501D01*
X118363385Y-104104701D01*
X118363382Y-104104703D01*
X118358404Y-104107024D01*
X118182319Y-104230319D01*
X118030319Y-104382319D01*
X117907024Y-104558404D01*
X117904703Y-104563382D01*
X117904701Y-104563385D01*
X117828186Y-104727471D01*
X117816178Y-104753223D01*
X117814756Y-104758531D01*
X117814755Y-104758533D01*
X117785796Y-104866610D01*
X117760542Y-104960858D01*
X117741807Y-105175000D01*
X117760542Y-105389142D01*
X117761966Y-105394455D01*
X117761966Y-105394457D01*
X117806895Y-105562131D01*
X117816178Y-105596777D01*
X117818500Y-105601757D01*
X117818501Y-105601759D01*
X117881682Y-105737250D01*
X117892343Y-105807441D01*
X117863363Y-105872254D01*
X117803944Y-105911111D01*
X117767487Y-105916500D01*
X117649950Y-105916500D01*
X117581829Y-105896498D01*
X117568729Y-105885941D01*
X117568675Y-105886011D01*
X117562415Y-105881155D01*
X117556807Y-105875547D01*
X117549983Y-105871511D01*
X117549980Y-105871509D01*
X117420427Y-105794892D01*
X117420428Y-105794892D01*
X117413601Y-105790855D01*
X117405990Y-105788644D01*
X117405988Y-105788643D01*
X117341118Y-105769797D01*
X117253831Y-105744438D01*
X117247426Y-105743934D01*
X117247421Y-105743933D01*
X117218958Y-105741693D01*
X117218950Y-105741693D01*
X117216502Y-105741500D01*
X116702094Y-105741500D01*
X116633973Y-105721498D01*
X116612999Y-105704595D01*
X115578810Y-104670405D01*
X114516152Y-103607747D01*
X114508612Y-103599461D01*
X114504500Y-103592982D01*
X114454848Y-103546356D01*
X114452007Y-103543602D01*
X114432270Y-103523865D01*
X114429073Y-103521385D01*
X114420051Y-103513680D01*
X114406616Y-103501064D01*
X114387821Y-103483414D01*
X114380875Y-103479595D01*
X114380872Y-103479593D01*
X114370066Y-103473652D01*
X114353547Y-103462801D01*
X114353083Y-103462441D01*
X114337541Y-103450386D01*
X114330272Y-103447241D01*
X114330268Y-103447238D01*
X114296963Y-103432826D01*
X114286313Y-103427609D01*
X114247560Y-103406305D01*
X114227937Y-103401267D01*
X114209234Y-103394863D01*
X114197920Y-103389967D01*
X114197919Y-103389967D01*
X114190645Y-103386819D01*
X114182822Y-103385580D01*
X114182812Y-103385577D01*
X114146976Y-103379901D01*
X114135356Y-103377495D01*
X114100211Y-103368472D01*
X114100210Y-103368472D01*
X114092530Y-103366500D01*
X114072276Y-103366500D01*
X114052565Y-103364949D01*
X114040386Y-103363020D01*
X114032557Y-103361780D01*
X114003286Y-103364547D01*
X113988539Y-103365941D01*
X113976681Y-103366500D01*
X108308767Y-103366500D01*
X108297584Y-103365973D01*
X108290091Y-103364298D01*
X108282165Y-103364547D01*
X108282164Y-103364547D01*
X108222014Y-103366438D01*
X108218055Y-103366500D01*
X108190144Y-103366500D01*
X108186210Y-103366997D01*
X108186209Y-103366997D01*
X108186144Y-103367005D01*
X108174307Y-103367938D01*
X108142490Y-103368938D01*
X108138029Y-103369078D01*
X108130110Y-103369327D01*
X108112454Y-103374456D01*
X108110658Y-103374978D01*
X108091306Y-103378986D01*
X108084235Y-103379880D01*
X108071203Y-103381526D01*
X108063834Y-103384443D01*
X108063832Y-103384444D01*
X108030097Y-103397800D01*
X108018869Y-103401645D01*
X107976407Y-103413982D01*
X107969585Y-103418016D01*
X107969579Y-103418019D01*
X107958968Y-103424294D01*
X107941218Y-103432990D01*
X107929756Y-103437528D01*
X107929751Y-103437531D01*
X107922383Y-103440448D01*
X107904970Y-103453099D01*
X107886625Y-103466427D01*
X107876707Y-103472943D01*
X107865463Y-103479593D01*
X107838637Y-103495458D01*
X107824313Y-103509782D01*
X107809281Y-103522621D01*
X107792893Y-103534528D01*
X107764712Y-103568593D01*
X107756722Y-103577373D01*
X106498112Y-104835983D01*
X106435800Y-104870009D01*
X106371087Y-104865924D01*
X106370906Y-104866610D01*
X106367437Y-104865694D01*
X106366967Y-104865664D01*
X106365914Y-104865291D01*
X106365900Y-104865287D01*
X106361028Y-104863562D01*
X106355935Y-104862655D01*
X106355932Y-104862654D01*
X106138095Y-104823851D01*
X106138089Y-104823850D01*
X106133006Y-104822945D01*
X106060096Y-104822054D01*
X105906581Y-104820179D01*
X105906579Y-104820179D01*
X105901411Y-104820116D01*
X105672464Y-104855150D01*
X105452314Y-104927106D01*
X105447726Y-104929494D01*
X105447722Y-104929496D01*
X105312285Y-105000000D01*
X105246872Y-105034052D01*
X105242739Y-105037155D01*
X105242736Y-105037157D01*
X105217625Y-105056011D01*
X105061655Y-105173117D01*
X104901639Y-105340564D01*
X104898725Y-105344836D01*
X104898724Y-105344837D01*
X104868501Y-105389142D01*
X104771119Y-105531899D01*
X104673602Y-105741981D01*
X104611707Y-105965169D01*
X104587095Y-106195469D01*
X101008500Y-106195469D01*
X101008500Y-103054568D01*
X102437382Y-103054568D01*
X102437963Y-103059588D01*
X102437963Y-103059592D01*
X102441651Y-103091467D01*
X102466208Y-103303699D01*
X102467587Y-103308573D01*
X102467588Y-103308577D01*
X102529302Y-103526669D01*
X102534494Y-103545017D01*
X102536628Y-103549592D01*
X102536630Y-103549599D01*
X102626804Y-103742976D01*
X102640484Y-103772313D01*
X102643326Y-103776494D01*
X102643326Y-103776495D01*
X102778605Y-103975552D01*
X102778608Y-103975556D01*
X102781451Y-103979739D01*
X102784928Y-103983416D01*
X102784929Y-103983417D01*
X102885238Y-104089491D01*
X102953767Y-104161959D01*
X102957793Y-104165037D01*
X102957794Y-104165038D01*
X103148981Y-104311212D01*
X103148985Y-104311215D01*
X103153001Y-104314285D01*
X103374026Y-104432797D01*
X103378807Y-104434443D01*
X103378811Y-104434445D01*
X103604538Y-104512169D01*
X103611156Y-104514448D01*
X103714689Y-104532331D01*
X103854380Y-104556460D01*
X103854386Y-104556461D01*
X103858290Y-104557135D01*
X103862251Y-104557315D01*
X103862252Y-104557315D01*
X103886931Y-104558436D01*
X103886950Y-104558436D01*
X103888350Y-104558500D01*
X104063015Y-104558500D01*
X104065523Y-104558298D01*
X104065528Y-104558298D01*
X104244944Y-104543863D01*
X104244949Y-104543862D01*
X104249985Y-104543457D01*
X104254893Y-104542252D01*
X104254896Y-104542251D01*
X104488625Y-104484841D01*
X104493539Y-104483634D01*
X104498191Y-104481659D01*
X104498195Y-104481658D01*
X104719741Y-104387617D01*
X104719742Y-104387617D01*
X104724396Y-104385641D01*
X104936615Y-104252000D01*
X105124738Y-104086147D01*
X105283924Y-103892351D01*
X105410078Y-103675596D01*
X105499955Y-103441461D01*
X105503542Y-103424294D01*
X105550206Y-103200921D01*
X105551241Y-103195967D01*
X105562618Y-102945432D01*
X105533792Y-102696301D01*
X105530476Y-102684580D01*
X105527765Y-102675000D01*
X115241807Y-102675000D01*
X115260542Y-102889142D01*
X115316178Y-103096777D01*
X115407024Y-103291596D01*
X115530319Y-103467681D01*
X115682319Y-103619681D01*
X115858403Y-103742976D01*
X115863381Y-103745297D01*
X115863384Y-103745299D01*
X116047231Y-103831028D01*
X116053223Y-103833822D01*
X116058531Y-103835244D01*
X116058533Y-103835245D01*
X116255543Y-103888034D01*
X116255545Y-103888034D01*
X116260858Y-103889458D01*
X116475000Y-103908193D01*
X116689142Y-103889458D01*
X116694455Y-103888034D01*
X116694457Y-103888034D01*
X116891467Y-103835245D01*
X116891469Y-103835244D01*
X116896777Y-103833822D01*
X116902769Y-103831028D01*
X117086616Y-103745299D01*
X117086619Y-103745297D01*
X117091597Y-103742976D01*
X117147802Y-103703621D01*
X120810933Y-103703621D01*
X120820227Y-103715635D01*
X120854146Y-103739385D01*
X120863641Y-103744868D01*
X121048413Y-103831028D01*
X121058705Y-103834774D01*
X121255632Y-103887540D01*
X121266425Y-103889443D01*
X121469525Y-103907212D01*
X121480475Y-103907212D01*
X121683575Y-103889443D01*
X121694368Y-103887540D01*
X121891295Y-103834774D01*
X121901587Y-103831028D01*
X122086359Y-103744868D01*
X122095854Y-103739385D01*
X122130607Y-103715051D01*
X122138983Y-103704572D01*
X122131916Y-103691127D01*
X121487811Y-103047021D01*
X121473868Y-103039408D01*
X121472034Y-103039539D01*
X121465420Y-103043790D01*
X120817360Y-103691851D01*
X120810933Y-103703621D01*
X117147802Y-103703621D01*
X117267681Y-103619681D01*
X117419681Y-103467681D01*
X117542976Y-103291596D01*
X117633822Y-103096777D01*
X117689458Y-102889142D01*
X117707714Y-102680475D01*
X120242788Y-102680475D01*
X120260557Y-102883575D01*
X120262460Y-102894368D01*
X120315226Y-103091295D01*
X120318972Y-103101587D01*
X120405135Y-103286364D01*
X120410613Y-103295850D01*
X120434949Y-103330607D01*
X120445428Y-103338983D01*
X120458872Y-103331917D01*
X121102979Y-102687811D01*
X121109356Y-102676132D01*
X121839408Y-102676132D01*
X121839539Y-102677966D01*
X121843790Y-102684580D01*
X122491851Y-103332640D01*
X122503621Y-103339067D01*
X122515635Y-103329772D01*
X122539387Y-103295850D01*
X122544865Y-103286364D01*
X122631028Y-103101587D01*
X122634774Y-103091295D01*
X122644615Y-103054568D01*
X124437382Y-103054568D01*
X124437963Y-103059588D01*
X124437963Y-103059592D01*
X124441651Y-103091467D01*
X124466208Y-103303699D01*
X124467587Y-103308573D01*
X124467588Y-103308577D01*
X124529302Y-103526669D01*
X124534494Y-103545017D01*
X124536628Y-103549592D01*
X124536630Y-103549599D01*
X124626804Y-103742976D01*
X124640484Y-103772313D01*
X124643326Y-103776494D01*
X124643326Y-103776495D01*
X124778605Y-103975552D01*
X124778608Y-103975556D01*
X124781451Y-103979739D01*
X124784928Y-103983416D01*
X124784929Y-103983417D01*
X124885238Y-104089491D01*
X124953767Y-104161959D01*
X124957793Y-104165037D01*
X124957794Y-104165038D01*
X125148981Y-104311212D01*
X125148985Y-104311215D01*
X125153001Y-104314285D01*
X125374026Y-104432797D01*
X125378807Y-104434443D01*
X125378811Y-104434445D01*
X125604538Y-104512169D01*
X125611156Y-104514448D01*
X125714689Y-104532331D01*
X125854380Y-104556460D01*
X125854386Y-104556461D01*
X125858290Y-104557135D01*
X125862251Y-104557315D01*
X125862252Y-104557315D01*
X125886931Y-104558436D01*
X125886950Y-104558436D01*
X125888350Y-104558500D01*
X126063015Y-104558500D01*
X126065523Y-104558298D01*
X126065528Y-104558298D01*
X126244944Y-104543863D01*
X126244949Y-104543862D01*
X126249985Y-104543457D01*
X126254893Y-104542252D01*
X126254896Y-104542251D01*
X126488625Y-104484841D01*
X126493539Y-104483634D01*
X126498191Y-104481659D01*
X126498195Y-104481658D01*
X126719741Y-104387617D01*
X126719742Y-104387617D01*
X126724396Y-104385641D01*
X126936615Y-104252000D01*
X127124738Y-104086147D01*
X127283924Y-103892351D01*
X127410078Y-103675596D01*
X127499955Y-103441461D01*
X127503542Y-103424294D01*
X127550206Y-103200921D01*
X127551241Y-103195967D01*
X127562618Y-102945432D01*
X127533792Y-102696301D01*
X127530476Y-102684580D01*
X127466884Y-102459852D01*
X127466883Y-102459850D01*
X127465506Y-102454983D01*
X127463372Y-102450408D01*
X127463370Y-102450401D01*
X127361653Y-102232269D01*
X127361651Y-102232265D01*
X127359516Y-102227687D01*
X127356674Y-102223505D01*
X127221395Y-102024448D01*
X127221392Y-102024444D01*
X127218549Y-102020261D01*
X127209808Y-102011017D01*
X127049713Y-101841721D01*
X127046233Y-101838041D01*
X127042206Y-101834962D01*
X126851019Y-101688788D01*
X126851015Y-101688785D01*
X126846999Y-101685715D01*
X126795589Y-101658149D01*
X126630435Y-101569595D01*
X126625974Y-101567203D01*
X126621193Y-101565557D01*
X126621189Y-101565555D01*
X126393633Y-101487201D01*
X126388844Y-101485552D01*
X126285311Y-101467669D01*
X126145620Y-101443540D01*
X126145614Y-101443539D01*
X126141710Y-101442865D01*
X126137749Y-101442685D01*
X126137748Y-101442685D01*
X126113069Y-101441564D01*
X126113050Y-101441564D01*
X126111650Y-101441500D01*
X125936985Y-101441500D01*
X125934477Y-101441702D01*
X125934472Y-101441702D01*
X125755056Y-101456137D01*
X125755051Y-101456138D01*
X125750015Y-101456543D01*
X125745107Y-101457748D01*
X125745104Y-101457749D01*
X125513326Y-101514680D01*
X125506461Y-101516366D01*
X125501809Y-101518341D01*
X125501805Y-101518342D01*
X125381061Y-101569595D01*
X125275604Y-101614359D01*
X125063385Y-101748000D01*
X124875262Y-101913853D01*
X124716076Y-102107649D01*
X124589922Y-102324404D01*
X124500045Y-102558539D01*
X124499012Y-102563485D01*
X124499010Y-102563491D01*
X124474571Y-102680475D01*
X124448759Y-102804033D01*
X124437382Y-103054568D01*
X122644615Y-103054568D01*
X122687540Y-102894368D01*
X122689443Y-102883575D01*
X122707212Y-102680475D01*
X122707212Y-102669525D01*
X122689443Y-102466425D01*
X122687540Y-102455632D01*
X122634774Y-102258705D01*
X122631028Y-102248413D01*
X122544865Y-102063636D01*
X122539387Y-102054150D01*
X122515051Y-102019393D01*
X122504572Y-102011017D01*
X122491128Y-102018083D01*
X121847021Y-102662189D01*
X121839408Y-102676132D01*
X121109356Y-102676132D01*
X121110592Y-102673868D01*
X121110461Y-102672034D01*
X121106210Y-102665420D01*
X120458149Y-102017360D01*
X120446379Y-102010933D01*
X120434365Y-102020228D01*
X120410613Y-102054150D01*
X120405135Y-102063636D01*
X120318972Y-102248413D01*
X120315226Y-102258705D01*
X120262460Y-102455632D01*
X120260557Y-102466425D01*
X120242788Y-102669525D01*
X120242788Y-102680475D01*
X117707714Y-102680475D01*
X117708193Y-102675000D01*
X117689458Y-102460858D01*
X117633822Y-102253223D01*
X117567978Y-102112021D01*
X117545299Y-102063385D01*
X117545297Y-102063382D01*
X117542976Y-102058404D01*
X117419681Y-101882319D01*
X117267681Y-101730319D01*
X117146444Y-101645428D01*
X120811017Y-101645428D01*
X120818083Y-101658872D01*
X121462189Y-102302979D01*
X121476132Y-102310592D01*
X121477966Y-102310461D01*
X121484580Y-102306210D01*
X122132640Y-101658149D01*
X122139067Y-101646379D01*
X122129773Y-101634365D01*
X122095854Y-101610615D01*
X122086359Y-101605132D01*
X121901587Y-101518972D01*
X121891295Y-101515226D01*
X121694368Y-101462460D01*
X121683575Y-101460557D01*
X121480475Y-101442788D01*
X121469525Y-101442788D01*
X121266425Y-101460557D01*
X121255632Y-101462460D01*
X121058705Y-101515226D01*
X121048413Y-101518972D01*
X120863636Y-101605135D01*
X120854150Y-101610613D01*
X120819393Y-101634949D01*
X120811017Y-101645428D01*
X117146444Y-101645428D01*
X117091597Y-101607024D01*
X117086619Y-101604703D01*
X117086616Y-101604701D01*
X116901759Y-101518501D01*
X116901758Y-101518500D01*
X116896777Y-101516178D01*
X116891469Y-101514756D01*
X116891467Y-101514755D01*
X116694457Y-101461966D01*
X116694455Y-101461966D01*
X116689142Y-101460542D01*
X116475000Y-101441807D01*
X116260858Y-101460542D01*
X116255545Y-101461966D01*
X116255543Y-101461966D01*
X116058533Y-101514755D01*
X116058531Y-101514756D01*
X116053223Y-101516178D01*
X116048243Y-101518500D01*
X116048241Y-101518501D01*
X115863385Y-101604701D01*
X115863382Y-101604703D01*
X115858404Y-101607024D01*
X115682319Y-101730319D01*
X115530319Y-101882319D01*
X115407024Y-102058404D01*
X115404703Y-102063382D01*
X115404701Y-102063385D01*
X115382022Y-102112021D01*
X115316178Y-102253223D01*
X115260542Y-102460858D01*
X115241807Y-102675000D01*
X105527765Y-102675000D01*
X105466884Y-102459852D01*
X105466883Y-102459850D01*
X105465506Y-102454983D01*
X105463372Y-102450408D01*
X105463370Y-102450401D01*
X105361653Y-102232269D01*
X105361651Y-102232265D01*
X105359516Y-102227687D01*
X105356674Y-102223505D01*
X105221395Y-102024448D01*
X105221392Y-102024444D01*
X105218549Y-102020261D01*
X105209808Y-102011017D01*
X105049713Y-101841721D01*
X105046233Y-101838041D01*
X105042206Y-101834962D01*
X104851019Y-101688788D01*
X104851015Y-101688785D01*
X104846999Y-101685715D01*
X104795589Y-101658149D01*
X104630435Y-101569595D01*
X104625974Y-101567203D01*
X104621193Y-101565557D01*
X104621189Y-101565555D01*
X104393633Y-101487201D01*
X104388844Y-101485552D01*
X104285311Y-101467669D01*
X104145620Y-101443540D01*
X104145614Y-101443539D01*
X104141710Y-101442865D01*
X104137749Y-101442685D01*
X104137748Y-101442685D01*
X104113069Y-101441564D01*
X104113050Y-101441564D01*
X104111650Y-101441500D01*
X103936985Y-101441500D01*
X103934477Y-101441702D01*
X103934472Y-101441702D01*
X103755056Y-101456137D01*
X103755051Y-101456138D01*
X103750015Y-101456543D01*
X103745107Y-101457748D01*
X103745104Y-101457749D01*
X103513326Y-101514680D01*
X103506461Y-101516366D01*
X103501809Y-101518341D01*
X103501805Y-101518342D01*
X103381061Y-101569595D01*
X103275604Y-101614359D01*
X103063385Y-101748000D01*
X102875262Y-101913853D01*
X102716076Y-102107649D01*
X102589922Y-102324404D01*
X102500045Y-102558539D01*
X102499012Y-102563485D01*
X102499010Y-102563491D01*
X102474571Y-102680475D01*
X102448759Y-102804033D01*
X102437382Y-103054568D01*
X101008500Y-103054568D01*
X101008500Y-101134500D01*
X101028502Y-101066379D01*
X101082158Y-101019886D01*
X101134500Y-101008500D01*
X128865500Y-101008500D01*
X128933621Y-101028502D01*
G37*
%TD.AperFunction*%
%TD*%
M02*
