%TF.GenerationSoftware,KiCad,Pcbnew,(6.0.4)*%
%TF.CreationDate,2024-08-12T15:42:03+08:00*%
%TF.ProjectId,laser tanks,6c617365-7220-4746-916e-6b732e6b6963,rev?*%
%TF.SameCoordinates,Original*%
%TF.FileFunction,Legend,Bot*%
%TF.FilePolarity,Positive*%
%FSLAX46Y46*%
G04 Gerber Fmt 4.6, Leading zero omitted, Abs format (unit mm)*
G04 Created by KiCad (PCBNEW (6.0.4)) date 2024-08-12 15:42:03*
%MOMM*%
%LPD*%
G01*
G04 APERTURE LIST*
%ADD10C,0.250000*%
%ADD11C,0.125000*%
%ADD12C,0.300000*%
%ADD13C,0.150000*%
%ADD14C,0.120000*%
G04 APERTURE END LIST*
D10*
X118642857Y-113000000D02*
X118738095Y-112952380D01*
X118880952Y-112952380D01*
X119023809Y-113000000D01*
X119119047Y-113095238D01*
X119166666Y-113190476D01*
X119214285Y-113380952D01*
X119214285Y-113523809D01*
X119166666Y-113714285D01*
X119119047Y-113809523D01*
X119023809Y-113904761D01*
X118880952Y-113952380D01*
X118785714Y-113952380D01*
X118642857Y-113904761D01*
X118595238Y-113857142D01*
X118595238Y-113523809D01*
X118785714Y-113523809D01*
X118166666Y-113285714D02*
X118166666Y-113952380D01*
X118166666Y-113380952D02*
X118119047Y-113333333D01*
X118023809Y-113285714D01*
X117880952Y-113285714D01*
X117785714Y-113333333D01*
X117738095Y-113428571D01*
X117738095Y-113952380D01*
X116833333Y-113952380D02*
X116833333Y-112952380D01*
X116833333Y-113904761D02*
X116928571Y-113952380D01*
X117119047Y-113952380D01*
X117214285Y-113904761D01*
X117261904Y-113857142D01*
X117309523Y-113761904D01*
X117309523Y-113476190D01*
X117261904Y-113380952D01*
X117214285Y-113333333D01*
X117119047Y-113285714D01*
X116928571Y-113285714D01*
X116833333Y-113333333D01*
X115285714Y-113904761D02*
X115142857Y-113952380D01*
X114904761Y-113952380D01*
X114809523Y-113904761D01*
X114761904Y-113857142D01*
X114714285Y-113761904D01*
X114714285Y-113666666D01*
X114761904Y-113571428D01*
X114809523Y-113523809D01*
X114904761Y-113476190D01*
X115095238Y-113428571D01*
X115190476Y-113380952D01*
X115238095Y-113333333D01*
X115285714Y-113238095D01*
X115285714Y-113142857D01*
X115238095Y-113047619D01*
X115190476Y-113000000D01*
X115095238Y-112952380D01*
X114857142Y-112952380D01*
X114714285Y-113000000D01*
X113190476Y-112952380D02*
X112857142Y-113952380D01*
X112523809Y-112952380D01*
X111761904Y-113904761D02*
X111857142Y-113952380D01*
X112047619Y-113952380D01*
X112142857Y-113904761D01*
X112190476Y-113857142D01*
X112238095Y-113761904D01*
X112238095Y-113476190D01*
X112190476Y-113380952D01*
X112142857Y-113333333D01*
X112047619Y-113285714D01*
X111857142Y-113285714D01*
X111761904Y-113333333D01*
X110904761Y-113904761D02*
X111000000Y-113952380D01*
X111190476Y-113952380D01*
X111285714Y-113904761D01*
X111333333Y-113857142D01*
X111380952Y-113761904D01*
X111380952Y-113476190D01*
X111333333Y-113380952D01*
X111285714Y-113333333D01*
X111190476Y-113285714D01*
X111000000Y-113285714D01*
X110904761Y-113333333D01*
X126452380Y-104785714D02*
X125976190Y-104452380D01*
X126452380Y-104214285D02*
X125452380Y-104214285D01*
X125452380Y-104595238D01*
X125500000Y-104690476D01*
X125547619Y-104738095D01*
X125642857Y-104785714D01*
X125785714Y-104785714D01*
X125880952Y-104738095D01*
X125928571Y-104690476D01*
X125976190Y-104595238D01*
X125976190Y-104214285D01*
X125928571Y-105214285D02*
X125928571Y-105547619D01*
X126452380Y-105690476D02*
X126452380Y-105214285D01*
X125452380Y-105214285D01*
X125452380Y-105690476D01*
X126357142Y-106690476D02*
X126404761Y-106642857D01*
X126452380Y-106500000D01*
X126452380Y-106404761D01*
X126404761Y-106261904D01*
X126309523Y-106166666D01*
X126214285Y-106119047D01*
X126023809Y-106071428D01*
X125880952Y-106071428D01*
X125690476Y-106119047D01*
X125595238Y-106166666D01*
X125500000Y-106261904D01*
X125452380Y-106404761D01*
X125452380Y-106500000D01*
X125500000Y-106642857D01*
X125547619Y-106690476D01*
X126452380Y-107119047D02*
X125452380Y-107119047D01*
X125928571Y-107595238D02*
X125928571Y-107928571D01*
X126452380Y-108071428D02*
X126452380Y-107595238D01*
X125452380Y-107595238D01*
X125452380Y-108071428D01*
X125452380Y-108357142D02*
X126452380Y-108690476D01*
X125452380Y-109023809D01*
X125928571Y-109357142D02*
X125928571Y-109690476D01*
X126452380Y-109833333D02*
X126452380Y-109357142D01*
X125452380Y-109357142D01*
X125452380Y-109833333D01*
X126452380Y-110833333D02*
X125976190Y-110500000D01*
X126452380Y-110261904D02*
X125452380Y-110261904D01*
X125452380Y-110642857D01*
X125500000Y-110738095D01*
X125547619Y-110785714D01*
X125642857Y-110833333D01*
X125785714Y-110833333D01*
X125880952Y-110785714D01*
X125928571Y-110738095D01*
X125976190Y-110642857D01*
X125976190Y-110261904D01*
D11*
X127323690Y-105940476D02*
X126823690Y-105940476D01*
X126823690Y-106059523D01*
X126847500Y-106130952D01*
X126895119Y-106178571D01*
X126942738Y-106202380D01*
X127037976Y-106226190D01*
X127109404Y-106226190D01*
X127204642Y-106202380D01*
X127252261Y-106178571D01*
X127299880Y-106130952D01*
X127323690Y-106059523D01*
X127323690Y-105940476D01*
X127299880Y-106630952D02*
X127323690Y-106583333D01*
X127323690Y-106488095D01*
X127299880Y-106440476D01*
X127252261Y-106416666D01*
X127061785Y-106416666D01*
X127014166Y-106440476D01*
X126990357Y-106488095D01*
X126990357Y-106583333D01*
X127014166Y-106630952D01*
X127061785Y-106654761D01*
X127109404Y-106654761D01*
X127157023Y-106416666D01*
X127299880Y-106845238D02*
X127323690Y-106892857D01*
X127323690Y-106988095D01*
X127299880Y-107035714D01*
X127252261Y-107059523D01*
X127228452Y-107059523D01*
X127180833Y-107035714D01*
X127157023Y-106988095D01*
X127157023Y-106916666D01*
X127133214Y-106869047D01*
X127085595Y-106845238D01*
X127061785Y-106845238D01*
X127014166Y-106869047D01*
X126990357Y-106916666D01*
X126990357Y-106988095D01*
X127014166Y-107035714D01*
X127323690Y-107273809D02*
X126990357Y-107273809D01*
X126823690Y-107273809D02*
X126847500Y-107250000D01*
X126871309Y-107273809D01*
X126847500Y-107297619D01*
X126823690Y-107273809D01*
X126871309Y-107273809D01*
X126990357Y-107726190D02*
X127395119Y-107726190D01*
X127442738Y-107702380D01*
X127466547Y-107678571D01*
X127490357Y-107630952D01*
X127490357Y-107559523D01*
X127466547Y-107511904D01*
X127299880Y-107726190D02*
X127323690Y-107678571D01*
X127323690Y-107583333D01*
X127299880Y-107535714D01*
X127276071Y-107511904D01*
X127228452Y-107488095D01*
X127085595Y-107488095D01*
X127037976Y-107511904D01*
X127014166Y-107535714D01*
X126990357Y-107583333D01*
X126990357Y-107678571D01*
X127014166Y-107726190D01*
X126990357Y-107964285D02*
X127323690Y-107964285D01*
X127037976Y-107964285D02*
X127014166Y-107988095D01*
X126990357Y-108035714D01*
X126990357Y-108107142D01*
X127014166Y-108154761D01*
X127061785Y-108178571D01*
X127323690Y-108178571D01*
X127299880Y-108607142D02*
X127323690Y-108559523D01*
X127323690Y-108464285D01*
X127299880Y-108416666D01*
X127252261Y-108392857D01*
X127061785Y-108392857D01*
X127014166Y-108416666D01*
X126990357Y-108464285D01*
X126990357Y-108559523D01*
X127014166Y-108607142D01*
X127061785Y-108630952D01*
X127109404Y-108630952D01*
X127157023Y-108392857D01*
X127323690Y-109059523D02*
X126823690Y-109059523D01*
X127299880Y-109059523D02*
X127323690Y-109011904D01*
X127323690Y-108916666D01*
X127299880Y-108869047D01*
X127276071Y-108845238D01*
X127228452Y-108821428D01*
X127085595Y-108821428D01*
X127037976Y-108845238D01*
X127014166Y-108869047D01*
X126990357Y-108916666D01*
X126990357Y-109011904D01*
X127014166Y-109059523D01*
X128128690Y-104785714D02*
X127628690Y-104785714D01*
X127819166Y-104785714D02*
X127795357Y-104833333D01*
X127795357Y-104928571D01*
X127819166Y-104976190D01*
X127842976Y-105000000D01*
X127890595Y-105023809D01*
X128033452Y-105023809D01*
X128081071Y-105000000D01*
X128104880Y-104976190D01*
X128128690Y-104928571D01*
X128128690Y-104833333D01*
X128104880Y-104785714D01*
X127795357Y-105190476D02*
X128128690Y-105309523D01*
X127795357Y-105428571D02*
X128128690Y-105309523D01*
X128247738Y-105261904D01*
X128271547Y-105238095D01*
X128295357Y-105190476D01*
X128104880Y-105976190D02*
X128128690Y-106047619D01*
X128128690Y-106166666D01*
X128104880Y-106214285D01*
X128081071Y-106238095D01*
X128033452Y-106261904D01*
X127985833Y-106261904D01*
X127938214Y-106238095D01*
X127914404Y-106214285D01*
X127890595Y-106166666D01*
X127866785Y-106071428D01*
X127842976Y-106023809D01*
X127819166Y-106000000D01*
X127771547Y-105976190D01*
X127723928Y-105976190D01*
X127676309Y-106000000D01*
X127652500Y-106023809D01*
X127628690Y-106071428D01*
X127628690Y-106190476D01*
X127652500Y-106261904D01*
X128128690Y-106476190D02*
X127795357Y-106476190D01*
X127628690Y-106476190D02*
X127652500Y-106452380D01*
X127676309Y-106476190D01*
X127652500Y-106500000D01*
X127628690Y-106476190D01*
X127676309Y-106476190D01*
X128128690Y-106785714D02*
X128104880Y-106738095D01*
X128057261Y-106714285D01*
X127628690Y-106714285D01*
X128128690Y-107190476D02*
X127866785Y-107190476D01*
X127819166Y-107166666D01*
X127795357Y-107119047D01*
X127795357Y-107023809D01*
X127819166Y-106976190D01*
X128104880Y-107190476D02*
X128128690Y-107142857D01*
X128128690Y-107023809D01*
X128104880Y-106976190D01*
X128057261Y-106952380D01*
X128009642Y-106952380D01*
X127962023Y-106976190D01*
X127938214Y-107023809D01*
X127938214Y-107142857D01*
X127914404Y-107190476D01*
X128104880Y-107404761D02*
X128128690Y-107452380D01*
X128128690Y-107547619D01*
X128104880Y-107595238D01*
X128057261Y-107619047D01*
X128033452Y-107619047D01*
X127985833Y-107595238D01*
X127962023Y-107547619D01*
X127962023Y-107476190D01*
X127938214Y-107428571D01*
X127890595Y-107404761D01*
X127866785Y-107404761D01*
X127819166Y-107428571D01*
X127795357Y-107476190D01*
X127795357Y-107547619D01*
X127819166Y-107595238D01*
X127866785Y-108380952D02*
X127890595Y-108452380D01*
X127914404Y-108476190D01*
X127962023Y-108500000D01*
X128033452Y-108500000D01*
X128081071Y-108476190D01*
X128104880Y-108452380D01*
X128128690Y-108404761D01*
X128128690Y-108214285D01*
X127628690Y-108214285D01*
X127628690Y-108380952D01*
X127652500Y-108428571D01*
X127676309Y-108452380D01*
X127723928Y-108476190D01*
X127771547Y-108476190D01*
X127819166Y-108452380D01*
X127842976Y-108428571D01*
X127866785Y-108380952D01*
X127866785Y-108214285D01*
X127795357Y-108928571D02*
X128128690Y-108928571D01*
X127795357Y-108714285D02*
X128057261Y-108714285D01*
X128104880Y-108738095D01*
X128128690Y-108785714D01*
X128128690Y-108857142D01*
X128104880Y-108904761D01*
X128081071Y-108928571D01*
X127795357Y-109095238D02*
X127795357Y-109285714D01*
X127628690Y-109166666D02*
X128057261Y-109166666D01*
X128104880Y-109190476D01*
X128128690Y-109238095D01*
X128128690Y-109285714D01*
X128128690Y-109523809D02*
X128104880Y-109476190D01*
X128057261Y-109452380D01*
X127628690Y-109452380D01*
X128104880Y-109904761D02*
X128128690Y-109857142D01*
X128128690Y-109761904D01*
X128104880Y-109714285D01*
X128057261Y-109690476D01*
X127866785Y-109690476D01*
X127819166Y-109714285D01*
X127795357Y-109761904D01*
X127795357Y-109857142D01*
X127819166Y-109904761D01*
X127866785Y-109928571D01*
X127914404Y-109928571D01*
X127962023Y-109690476D01*
X128128690Y-110142857D02*
X127795357Y-110142857D01*
X127890595Y-110142857D02*
X127842976Y-110166666D01*
X127819166Y-110190476D01*
X127795357Y-110238095D01*
X127795357Y-110285714D01*
D12*
X102471071Y-105178571D02*
X102471071Y-104464285D01*
X100971071Y-104464285D01*
X102042500Y-105607142D02*
X102042500Y-106321428D01*
X102471071Y-105464285D02*
X100971071Y-105964285D01*
X102471071Y-106464285D01*
X102399642Y-106892857D02*
X102471071Y-107107142D01*
X102471071Y-107464285D01*
X102399642Y-107607142D01*
X102328214Y-107678571D01*
X102185357Y-107750000D01*
X102042500Y-107750000D01*
X101899642Y-107678571D01*
X101828214Y-107607142D01*
X101756785Y-107464285D01*
X101685357Y-107178571D01*
X101613928Y-107035714D01*
X101542500Y-106964285D01*
X101399642Y-106892857D01*
X101256785Y-106892857D01*
X101113928Y-106964285D01*
X101042500Y-107035714D01*
X100971071Y-107178571D01*
X100971071Y-107535714D01*
X101042500Y-107750000D01*
X101685357Y-108392857D02*
X101685357Y-108892857D01*
X102471071Y-109107142D02*
X102471071Y-108392857D01*
X100971071Y-108392857D01*
X100971071Y-109107142D01*
X102471071Y-110607142D02*
X101756785Y-110107142D01*
X102471071Y-109750000D02*
X100971071Y-109750000D01*
X100971071Y-110321428D01*
X101042500Y-110464285D01*
X101113928Y-110535714D01*
X101256785Y-110607142D01*
X101471071Y-110607142D01*
X101613928Y-110535714D01*
X101685357Y-110464285D01*
X101756785Y-110321428D01*
X101756785Y-109750000D01*
X103386071Y-104178571D02*
X103386071Y-105035714D01*
X104886071Y-104607142D02*
X103386071Y-104607142D01*
X104457500Y-105464285D02*
X104457500Y-106178571D01*
X104886071Y-105321428D02*
X103386071Y-105821428D01*
X104886071Y-106321428D01*
X104886071Y-106821428D02*
X103386071Y-106821428D01*
X104886071Y-107678571D01*
X103386071Y-107678571D01*
X104886071Y-108392857D02*
X103386071Y-108392857D01*
X104886071Y-109250000D02*
X104028928Y-108607142D01*
X103386071Y-109250000D02*
X104243214Y-108392857D01*
X104814642Y-109821428D02*
X104886071Y-110035714D01*
X104886071Y-110392857D01*
X104814642Y-110535714D01*
X104743214Y-110607142D01*
X104600357Y-110678571D01*
X104457500Y-110678571D01*
X104314642Y-110607142D01*
X104243214Y-110535714D01*
X104171785Y-110392857D01*
X104100357Y-110107142D01*
X104028928Y-109964285D01*
X103957500Y-109892857D01*
X103814642Y-109821428D01*
X103671785Y-109821428D01*
X103528928Y-109892857D01*
X103457500Y-109964285D01*
X103386071Y-110107142D01*
X103386071Y-110464285D01*
X103457500Y-110678571D01*
D13*
%TO.C,RV1*%
X114917380Y-102079761D02*
X114441190Y-101746428D01*
X114917380Y-101508333D02*
X113917380Y-101508333D01*
X113917380Y-101889285D01*
X113965000Y-101984523D01*
X114012619Y-102032142D01*
X114107857Y-102079761D01*
X114250714Y-102079761D01*
X114345952Y-102032142D01*
X114393571Y-101984523D01*
X114441190Y-101889285D01*
X114441190Y-101508333D01*
X113917380Y-102365476D02*
X114917380Y-102698809D01*
X113917380Y-103032142D01*
X114917380Y-103889285D02*
X114917380Y-103317857D01*
X114917380Y-103603571D02*
X113917380Y-103603571D01*
X114060238Y-103508333D01*
X114155476Y-103413095D01*
X114203095Y-103317857D01*
%TO.C,U1*%
X111761904Y-101052380D02*
X111761904Y-101861904D01*
X111714285Y-101957142D01*
X111666666Y-102004761D01*
X111571428Y-102052380D01*
X111380952Y-102052380D01*
X111285714Y-102004761D01*
X111238095Y-101957142D01*
X111190476Y-101861904D01*
X111190476Y-101052380D01*
X110190476Y-102052380D02*
X110761904Y-102052380D01*
X110476190Y-102052380D02*
X110476190Y-101052380D01*
X110571428Y-101195238D01*
X110666666Y-101290476D01*
X110761904Y-101338095D01*
%TO.C,R2*%
X108166666Y-109632380D02*
X108500000Y-109156190D01*
X108738095Y-109632380D02*
X108738095Y-108632380D01*
X108357142Y-108632380D01*
X108261904Y-108680000D01*
X108214285Y-108727619D01*
X108166666Y-108822857D01*
X108166666Y-108965714D01*
X108214285Y-109060952D01*
X108261904Y-109108571D01*
X108357142Y-109156190D01*
X108738095Y-109156190D01*
X107785714Y-108727619D02*
X107738095Y-108680000D01*
X107642857Y-108632380D01*
X107404761Y-108632380D01*
X107309523Y-108680000D01*
X107261904Y-108727619D01*
X107214285Y-108822857D01*
X107214285Y-108918095D01*
X107261904Y-109060952D01*
X107833333Y-109632380D01*
X107214285Y-109632380D01*
%TO.C,J1*%
X119282380Y-111166666D02*
X119996666Y-111166666D01*
X120139523Y-111119047D01*
X120234761Y-111023809D01*
X120282380Y-110880952D01*
X120282380Y-110785714D01*
X120282380Y-112166666D02*
X120282380Y-111595238D01*
X120282380Y-111880952D02*
X119282380Y-111880952D01*
X119425238Y-111785714D01*
X119520476Y-111690476D01*
X119568095Y-111595238D01*
D14*
%TO.C,RV1*%
X115595000Y-103325000D02*
X115595000Y-106475000D01*
X122435000Y-101535000D02*
X122435000Y-102025000D01*
X122435000Y-103325000D02*
X122435000Y-106475000D01*
X115595000Y-106475000D02*
X122435000Y-106475000D01*
X115595000Y-101535000D02*
X122435000Y-101535000D01*
X115595000Y-101535000D02*
X115595000Y-102025000D01*
%TO.C,U1*%
X111000000Y-102440000D02*
X109050000Y-102440000D01*
X111000000Y-107560000D02*
X109050000Y-107560000D01*
X111000000Y-102440000D02*
X114450000Y-102440000D01*
X111000000Y-107560000D02*
X112950000Y-107560000D01*
%TO.C,R2*%
X108727064Y-111910000D02*
X107272936Y-111910000D01*
X108727064Y-110090000D02*
X107272936Y-110090000D01*
%TO.C,J1*%
X111090000Y-112830000D02*
X111090000Y-110170000D01*
X116230000Y-112830000D02*
X111090000Y-112830000D01*
X117500000Y-112830000D02*
X118830000Y-112830000D01*
X116230000Y-110170000D02*
X111090000Y-110170000D01*
X118830000Y-112830000D02*
X118830000Y-111500000D01*
X116230000Y-112830000D02*
X116230000Y-110170000D01*
%TD*%
M02*
