%TF.GenerationSoftware,KiCad,Pcbnew,9.0.4*%
%TF.CreationDate,2026-06-15T14:54:37+08:00*%
%TF.ProjectId,motorcontroller,6d6f746f-7263-46f6-9e74-726f6c6c6572,rev?*%
%TF.SameCoordinates,Original*%
%TF.FileFunction,Soldermask,Top*%
%TF.FilePolarity,Negative*%
%FSLAX46Y46*%
G04 Gerber Fmt 4.6, Leading zero omitted, Abs format (unit mm)*
G04 Created by KiCad (PCBNEW 9.0.4) date 2026-06-15 14:54:37*
%MOMM*%
%LPD*%
G01*
G04 APERTURE LIST*
G04 Aperture macros list*
%AMRoundRect*
0 Rectangle with rounded corners*
0 $1 Rounding radius*
0 $2 $3 $4 $5 $6 $7 $8 $9 X,Y pos of 4 corners*
0 Add a 4 corners polygon primitive as box body*
4,1,4,$2,$3,$4,$5,$6,$7,$8,$9,$2,$3,0*
0 Add four circle primitives for the rounded corners*
1,1,$1+$1,$2,$3*
1,1,$1+$1,$4,$5*
1,1,$1+$1,$6,$7*
1,1,$1+$1,$8,$9*
0 Add four rect primitives between the rounded corners*
20,1,$1+$1,$2,$3,$4,$5,0*
20,1,$1+$1,$4,$5,$6,$7,0*
20,1,$1+$1,$6,$7,$8,$9,0*
20,1,$1+$1,$8,$9,$2,$3,0*%
G04 Aperture macros list end*
%ADD10R,1.500000X1.050000*%
%ADD11O,1.500000X1.050000*%
%ADD12R,1.700000X1.700000*%
%ADD13C,1.700000*%
%ADD14R,1.905000X2.000000*%
%ADD15O,1.905000X2.000000*%
%ADD16RoundRect,0.250001X-0.949999X0.949999X-0.949999X-0.949999X0.949999X-0.949999X0.949999X0.949999X0*%
%ADD17C,2.400000*%
%ADD18O,2.420000X1.312000*%
%ADD19RoundRect,0.250000X-0.600000X-0.725000X0.600000X-0.725000X0.600000X0.725000X-0.600000X0.725000X0*%
%ADD20O,1.700000X1.950000*%
%ADD21RoundRect,0.250000X-0.725000X0.600000X-0.725000X-0.600000X0.725000X-0.600000X0.725000X0.600000X0*%
%ADD22O,1.950000X1.700000*%
%ADD23RoundRect,0.250000X-0.600000X-0.750000X0.600000X-0.750000X0.600000X0.750000X-0.600000X0.750000X0*%
%ADD24O,1.700000X2.000000*%
%ADD25C,1.600000*%
%ADD26RoundRect,0.250000X0.600000X0.725000X-0.600000X0.725000X-0.600000X-0.725000X0.600000X-0.725000X0*%
%ADD27RoundRect,0.249999X-0.850001X-0.850001X0.850001X-0.850001X0.850001X0.850001X-0.850001X0.850001X0*%
%ADD28C,2.200000*%
%ADD29R,2.000000X2.000000*%
%ADD30C,2.000000*%
G04 APERTURE END LIST*
D10*
%TO.C,Q2*%
X206000000Y-52960000D03*
D11*
X206000000Y-54230000D03*
X206000000Y-55500000D03*
%TD*%
D12*
%TO.C,J1*%
X210975000Y-79135000D03*
D13*
X213515000Y-79135000D03*
%TD*%
D14*
%TO.C,U4*%
X220170000Y-117250000D03*
D15*
X222710000Y-117250000D03*
X225250000Y-117250000D03*
%TD*%
D16*
%TO.C,J10*%
X224500000Y-98000000D03*
D17*
X224500000Y-101500000D03*
%TD*%
D18*
%TO.C,U3*%
X208500000Y-83380000D03*
X216120000Y-85920000D03*
X216120000Y-83380000D03*
X208500000Y-85920000D03*
X216120000Y-91000000D03*
X216120000Y-88460000D03*
X208500000Y-88460000D03*
X208500000Y-91000000D03*
%TD*%
D16*
%TO.C,J9*%
X224500000Y-88500000D03*
D17*
X224500000Y-92000000D03*
%TD*%
D19*
%TO.C,J3*%
X179000000Y-117055000D03*
D20*
X181500000Y-117055000D03*
X184000000Y-117055000D03*
X186500000Y-117055000D03*
%TD*%
D21*
%TO.C,J5*%
X184500000Y-45000000D03*
D22*
X184500000Y-47500000D03*
X184500000Y-50000000D03*
X184500000Y-52500000D03*
X184500000Y-55000000D03*
X184500000Y-57500000D03*
%TD*%
D12*
%TO.C,ESP_LEFT1*%
X178000000Y-76440000D03*
D13*
X178000000Y-78980000D03*
X178000000Y-81520000D03*
X178000000Y-84060000D03*
X178000000Y-86600000D03*
X178000000Y-89140000D03*
X178000000Y-91680000D03*
X178000000Y-94220000D03*
X178000000Y-96760000D03*
X178000000Y-99300000D03*
X178000000Y-101840000D03*
X178000000Y-104380000D03*
X178000000Y-106920000D03*
X178000000Y-109460000D03*
X178000000Y-112000000D03*
%TD*%
D23*
%TO.C,J12*%
X211250000Y-117055000D03*
D24*
X213750000Y-117055000D03*
%TD*%
D25*
%TO.C,R6*%
X196080000Y-105750000D03*
X185920000Y-105750000D03*
%TD*%
%TO.C,C4*%
X208750000Y-106750000D03*
X216250000Y-106750000D03*
%TD*%
D18*
%TO.C,U2*%
X190880000Y-43880000D03*
X198500000Y-46420000D03*
X198500000Y-43880000D03*
X190880000Y-46420000D03*
X198500000Y-51500000D03*
X198500000Y-48960000D03*
X190880000Y-48960000D03*
X190880000Y-51500000D03*
%TD*%
D26*
%TO.C,J4*%
X197000000Y-76945000D03*
D20*
X194500000Y-76945000D03*
X192000000Y-76945000D03*
X189500000Y-76945000D03*
X187000000Y-76945000D03*
X184500000Y-76945000D03*
%TD*%
D25*
%TO.C,C3*%
X227000000Y-106750000D03*
X219500000Y-106750000D03*
%TD*%
D12*
%TO.C,J8*%
X191460000Y-58750000D03*
D13*
X194000000Y-58750000D03*
%TD*%
D12*
%TO.C,J6*%
X191670000Y-55000000D03*
D13*
X194210000Y-55000000D03*
X196750000Y-55000000D03*
%TD*%
D27*
%TO.C,D1*%
X185920000Y-97750000D03*
D28*
X196080000Y-97750000D03*
%TD*%
D16*
%TO.C,J2*%
X224500000Y-79000000D03*
D17*
X224500000Y-82500000D03*
%TD*%
D16*
%TO.C,Motor3*%
X205000000Y-45000000D03*
D17*
X205000000Y-48500000D03*
%TD*%
D25*
%TO.C,R5*%
X196080000Y-109250000D03*
X185920000Y-109250000D03*
%TD*%
%TO.C,C2*%
X227000000Y-111500000D03*
X219500000Y-111500000D03*
%TD*%
D29*
%TO.C,BZ1*%
X187900000Y-88000000D03*
D30*
X195500000Y-88000000D03*
%TD*%
D23*
%TO.C,J11*%
X193250000Y-117055000D03*
D24*
X195750000Y-117055000D03*
%TD*%
D12*
%TO.C,ESP_RIGHT1*%
X203500000Y-76440000D03*
D13*
X203500000Y-78980000D03*
X203500000Y-81520000D03*
X203500000Y-84060000D03*
X203500000Y-86600000D03*
X203500000Y-89140000D03*
X203500000Y-91680000D03*
X203500000Y-94220000D03*
X203500000Y-96760000D03*
X203500000Y-99300000D03*
X203500000Y-101840000D03*
X203500000Y-104380000D03*
X203500000Y-106920000D03*
X203500000Y-109460000D03*
X203500000Y-112000000D03*
%TD*%
D25*
%TO.C,C1*%
X208750000Y-111500000D03*
X216250000Y-111500000D03*
%TD*%
D18*
%TO.C,U1*%
X208380000Y-95880000D03*
X216000000Y-98420000D03*
X216000000Y-95880000D03*
X208380000Y-98420000D03*
X216000000Y-103500000D03*
X216000000Y-100960000D03*
X208380000Y-100960000D03*
X208380000Y-103500000D03*
%TD*%
D25*
%TO.C,R2*%
X196080000Y-102250000D03*
X185920000Y-102250000D03*
%TD*%
%TO.C,R1*%
X205560000Y-58750000D03*
X197940000Y-58750000D03*
%TD*%
D23*
%TO.C,J7*%
X202250000Y-117055000D03*
D24*
X204750000Y-117055000D03*
%TD*%
M02*
