M48
; DRILL file {KiCad 9.0.4} date 2026-06-15T14:54:47+0800
; FORMAT={-:-/ absolute / metric / decimal}
; #@! TF.CreationDate,2026-06-15T14:54:47+08:00
; #@! TF.GenerationSoftware,Kicad,Pcbnew,9.0.4
; #@! TF.FileFunction,Plated,1,2,PTH
FMAT,2
METRIC
; #@! TA.AperFunction,Plated,PTH,ComponentDrill
T1C0.600
; #@! TA.AperFunction,Plated,PTH,ComponentDrill
T2C0.750
; #@! TA.AperFunction,Plated,PTH,ComponentDrill
T3C0.800
; #@! TA.AperFunction,Plated,PTH,ComponentDrill
T4C0.950
; #@! TA.AperFunction,Plated,PTH,ComponentDrill
T5C1.000
; #@! TA.AperFunction,Plated,PTH,ComponentDrill
T6C1.100
; #@! TA.AperFunction,Plated,PTH,ComponentDrill
T7C1.200
%
G90
G05
T1
X190.88Y-43.88
X190.88Y-46.42
X190.88Y-48.96
X190.88Y-51.5
X198.5Y-43.88
X198.5Y-46.42
X198.5Y-48.96
X198.5Y-51.5
X208.38Y-95.88
X208.38Y-98.42
X208.38Y-100.96
X208.38Y-103.5
X208.5Y-83.38
X208.5Y-85.92
X208.5Y-88.46
X208.5Y-91.0
X216.0Y-95.88
X216.0Y-98.42
X216.0Y-100.96
X216.0Y-103.5
X216.12Y-83.38
X216.12Y-85.92
X216.12Y-88.46
X216.12Y-91.0
T2
X206.0Y-52.96
X206.0Y-54.23
X206.0Y-55.5
T3
X185.92Y-102.25
X185.92Y-105.75
X185.92Y-109.25
X196.08Y-102.25
X196.08Y-105.75
X196.08Y-109.25
X197.94Y-58.75
X205.56Y-58.75
X208.75Y-106.75
X208.75Y-111.5
X216.25Y-106.75
X216.25Y-111.5
X219.5Y-106.75
X219.5Y-111.5
X227.0Y-106.75
X227.0Y-111.5
T4
X179.0Y-117.055
X181.5Y-117.055
X184.0Y-117.055
X184.5Y-45.0
X184.5Y-47.5
X184.5Y-50.0
X184.5Y-52.5
X184.5Y-55.0
X184.5Y-57.5
X184.5Y-76.945
X186.5Y-117.055
X187.0Y-76.945
X189.5Y-76.945
X192.0Y-76.945
X194.5Y-76.945
X197.0Y-76.945
T5
X178.0Y-76.44
X178.0Y-78.98
X178.0Y-81.52
X178.0Y-84.06
X178.0Y-86.6
X178.0Y-89.14
X178.0Y-91.68
X178.0Y-94.22
X178.0Y-96.76
X178.0Y-99.3
X178.0Y-101.84
X178.0Y-104.38
X178.0Y-106.92
X178.0Y-109.46
X178.0Y-112.0
X187.9Y-88.0
X191.46Y-58.75
X191.67Y-55.0
X193.25Y-117.055
X194.0Y-58.75
X194.21Y-55.0
X195.5Y-88.0
X195.75Y-117.055
X196.75Y-55.0
X202.25Y-117.055
X203.5Y-76.44
X203.5Y-78.98
X203.5Y-81.52
X203.5Y-84.06
X203.5Y-86.6
X203.5Y-89.14
X203.5Y-91.68
X203.5Y-94.22
X203.5Y-96.76
X203.5Y-99.3
X203.5Y-101.84
X203.5Y-104.38
X203.5Y-106.92
X203.5Y-109.46
X203.5Y-112.0
X204.75Y-117.055
X210.975Y-79.135
X211.25Y-117.055
X213.515Y-79.135
X213.75Y-117.055
T6
X185.92Y-97.75
X196.08Y-97.75
T7
X205.0Y-45.0
X205.0Y-48.5
X220.17Y-117.25
X222.71Y-117.25
X224.5Y-79.0
X224.5Y-82.5
X224.5Y-88.5
X224.5Y-92.0
X224.5Y-98.0
X224.5Y-101.5
X225.25Y-117.25
M30
