%TF.GenerationSoftware,KiCad,Pcbnew,9.0.4*%
%TF.CreationDate,2026-06-15T14:54:37+08:00*%
%TF.ProjectId,motorcontroller,6d6f746f-7263-46f6-9e74-726f6c6c6572,rev?*%
%TF.SameCoordinates,Original*%
%TF.FileFunction,Legend,Top*%
%TF.FilePolarity,Positive*%
%FSLAX46Y46*%
G04 Gerber Fmt 4.6, Leading zero omitted, Abs format (unit mm)*
G04 Created by KiCad (PCBNEW 9.0.4) date 2026-06-15 14:54:37*
%MOMM*%
%LPD*%
G01*
G04 APERTURE LIST*
%ADD10C,0.300000*%
%ADD11C,0.150000*%
%ADD12C,0.120000*%
%ADD13C,0.152400*%
G04 APERTURE END LIST*
D10*
X213054510Y-67479400D02*
X214197368Y-67479400D01*
D11*
X211782857Y-103459999D02*
X211782857Y-102705714D01*
X213102857Y-103082856D02*
X211782857Y-103082856D01*
X212725714Y-102328571D02*
X212725714Y-101700000D01*
X213102857Y-102454285D02*
X211782857Y-102014285D01*
X211782857Y-102014285D02*
X213102857Y-101574285D01*
X211782857Y-100568571D02*
X211782857Y-100819999D01*
X211782857Y-100819999D02*
X211845714Y-100945713D01*
X211845714Y-100945713D02*
X211908571Y-101008571D01*
X211908571Y-101008571D02*
X212097142Y-101134285D01*
X212097142Y-101134285D02*
X212348571Y-101197142D01*
X212348571Y-101197142D02*
X212851428Y-101197142D01*
X212851428Y-101197142D02*
X212977142Y-101134285D01*
X212977142Y-101134285D02*
X213040000Y-101071428D01*
X213040000Y-101071428D02*
X213102857Y-100945713D01*
X213102857Y-100945713D02*
X213102857Y-100694285D01*
X213102857Y-100694285D02*
X213040000Y-100568571D01*
X213040000Y-100568571D02*
X212977142Y-100505713D01*
X212977142Y-100505713D02*
X212851428Y-100442856D01*
X212851428Y-100442856D02*
X212537142Y-100442856D01*
X212537142Y-100442856D02*
X212411428Y-100505713D01*
X212411428Y-100505713D02*
X212348571Y-100568571D01*
X212348571Y-100568571D02*
X212285714Y-100694285D01*
X212285714Y-100694285D02*
X212285714Y-100945713D01*
X212285714Y-100945713D02*
X212348571Y-101071428D01*
X212348571Y-101071428D02*
X212411428Y-101134285D01*
X212411428Y-101134285D02*
X212537142Y-101197142D01*
X211782857Y-99248570D02*
X211782857Y-99877142D01*
X211782857Y-99877142D02*
X212411428Y-99939999D01*
X212411428Y-99939999D02*
X212348571Y-99877142D01*
X212348571Y-99877142D02*
X212285714Y-99751428D01*
X212285714Y-99751428D02*
X212285714Y-99437142D01*
X212285714Y-99437142D02*
X212348571Y-99311428D01*
X212348571Y-99311428D02*
X212411428Y-99248570D01*
X212411428Y-99248570D02*
X212537142Y-99185713D01*
X212537142Y-99185713D02*
X212851428Y-99185713D01*
X212851428Y-99185713D02*
X212977142Y-99248570D01*
X212977142Y-99248570D02*
X213040000Y-99311428D01*
X213040000Y-99311428D02*
X213102857Y-99437142D01*
X213102857Y-99437142D02*
X213102857Y-99751428D01*
X213102857Y-99751428D02*
X213040000Y-99877142D01*
X213040000Y-99877142D02*
X212977142Y-99939999D01*
X212348571Y-98431427D02*
X212285714Y-98557142D01*
X212285714Y-98557142D02*
X212222857Y-98619999D01*
X212222857Y-98619999D02*
X212097142Y-98682856D01*
X212097142Y-98682856D02*
X212034285Y-98682856D01*
X212034285Y-98682856D02*
X211908571Y-98619999D01*
X211908571Y-98619999D02*
X211845714Y-98557142D01*
X211845714Y-98557142D02*
X211782857Y-98431427D01*
X211782857Y-98431427D02*
X211782857Y-98179999D01*
X211782857Y-98179999D02*
X211845714Y-98054285D01*
X211845714Y-98054285D02*
X211908571Y-97991427D01*
X211908571Y-97991427D02*
X212034285Y-97928570D01*
X212034285Y-97928570D02*
X212097142Y-97928570D01*
X212097142Y-97928570D02*
X212222857Y-97991427D01*
X212222857Y-97991427D02*
X212285714Y-98054285D01*
X212285714Y-98054285D02*
X212348571Y-98179999D01*
X212348571Y-98179999D02*
X212348571Y-98431427D01*
X212348571Y-98431427D02*
X212411428Y-98557142D01*
X212411428Y-98557142D02*
X212474285Y-98619999D01*
X212474285Y-98619999D02*
X212600000Y-98682856D01*
X212600000Y-98682856D02*
X212851428Y-98682856D01*
X212851428Y-98682856D02*
X212977142Y-98619999D01*
X212977142Y-98619999D02*
X213040000Y-98557142D01*
X213040000Y-98557142D02*
X213102857Y-98431427D01*
X213102857Y-98431427D02*
X213102857Y-98179999D01*
X213102857Y-98179999D02*
X213040000Y-98054285D01*
X213040000Y-98054285D02*
X212977142Y-97991427D01*
X212977142Y-97991427D02*
X212851428Y-97928570D01*
X212851428Y-97928570D02*
X212600000Y-97928570D01*
X212600000Y-97928570D02*
X212474285Y-97991427D01*
X212474285Y-97991427D02*
X212411428Y-98054285D01*
X212411428Y-98054285D02*
X212348571Y-98179999D01*
X211782857Y-96797142D02*
X211782857Y-97048570D01*
X211782857Y-97048570D02*
X211845714Y-97174284D01*
X211845714Y-97174284D02*
X211908571Y-97237142D01*
X211908571Y-97237142D02*
X212097142Y-97362856D01*
X212097142Y-97362856D02*
X212348571Y-97425713D01*
X212348571Y-97425713D02*
X212851428Y-97425713D01*
X212851428Y-97425713D02*
X212977142Y-97362856D01*
X212977142Y-97362856D02*
X213040000Y-97299999D01*
X213040000Y-97299999D02*
X213102857Y-97174284D01*
X213102857Y-97174284D02*
X213102857Y-96922856D01*
X213102857Y-96922856D02*
X213040000Y-96797142D01*
X213040000Y-96797142D02*
X212977142Y-96734284D01*
X212977142Y-96734284D02*
X212851428Y-96671427D01*
X212851428Y-96671427D02*
X212537142Y-96671427D01*
X212537142Y-96671427D02*
X212411428Y-96734284D01*
X212411428Y-96734284D02*
X212348571Y-96797142D01*
X212348571Y-96797142D02*
X212285714Y-96922856D01*
X212285714Y-96922856D02*
X212285714Y-97174284D01*
X212285714Y-97174284D02*
X212348571Y-97299999D01*
X212348571Y-97299999D02*
X212411428Y-97362856D01*
X212411428Y-97362856D02*
X212537142Y-97425713D01*
D10*
X210554510Y-67479400D02*
X211697368Y-67479400D01*
X211125939Y-68050828D02*
X211125939Y-66907971D01*
D11*
X203550057Y-54345238D02*
X203502438Y-54440476D01*
X203502438Y-54440476D02*
X203407200Y-54535714D01*
X203407200Y-54535714D02*
X203264342Y-54678571D01*
X203264342Y-54678571D02*
X203216723Y-54773809D01*
X203216723Y-54773809D02*
X203216723Y-54869047D01*
X203454819Y-54821428D02*
X203407200Y-54916666D01*
X203407200Y-54916666D02*
X203311961Y-55011904D01*
X203311961Y-55011904D02*
X203121485Y-55059523D01*
X203121485Y-55059523D02*
X202788152Y-55059523D01*
X202788152Y-55059523D02*
X202597676Y-55011904D01*
X202597676Y-55011904D02*
X202502438Y-54916666D01*
X202502438Y-54916666D02*
X202454819Y-54821428D01*
X202454819Y-54821428D02*
X202454819Y-54630952D01*
X202454819Y-54630952D02*
X202502438Y-54535714D01*
X202502438Y-54535714D02*
X202597676Y-54440476D01*
X202597676Y-54440476D02*
X202788152Y-54392857D01*
X202788152Y-54392857D02*
X203121485Y-54392857D01*
X203121485Y-54392857D02*
X203311961Y-54440476D01*
X203311961Y-54440476D02*
X203407200Y-54535714D01*
X203407200Y-54535714D02*
X203454819Y-54630952D01*
X203454819Y-54630952D02*
X203454819Y-54821428D01*
X202550057Y-54011904D02*
X202502438Y-53964285D01*
X202502438Y-53964285D02*
X202454819Y-53869047D01*
X202454819Y-53869047D02*
X202454819Y-53630952D01*
X202454819Y-53630952D02*
X202502438Y-53535714D01*
X202502438Y-53535714D02*
X202550057Y-53488095D01*
X202550057Y-53488095D02*
X202645295Y-53440476D01*
X202645295Y-53440476D02*
X202740533Y-53440476D01*
X202740533Y-53440476D02*
X202883390Y-53488095D01*
X202883390Y-53488095D02*
X203454819Y-54059523D01*
X203454819Y-54059523D02*
X203454819Y-53440476D01*
X207704819Y-79333333D02*
X208419104Y-79333333D01*
X208419104Y-79333333D02*
X208561961Y-79380952D01*
X208561961Y-79380952D02*
X208657200Y-79476190D01*
X208657200Y-79476190D02*
X208704819Y-79619047D01*
X208704819Y-79619047D02*
X208704819Y-79714285D01*
X208704819Y-78333333D02*
X208704819Y-78904761D01*
X208704819Y-78619047D02*
X207704819Y-78619047D01*
X207704819Y-78619047D02*
X207847676Y-78714285D01*
X207847676Y-78714285D02*
X207942914Y-78809523D01*
X207942914Y-78809523D02*
X207990533Y-78904761D01*
X221988095Y-114954819D02*
X221988095Y-115764342D01*
X221988095Y-115764342D02*
X222035714Y-115859580D01*
X222035714Y-115859580D02*
X222083333Y-115907200D01*
X222083333Y-115907200D02*
X222178571Y-115954819D01*
X222178571Y-115954819D02*
X222369047Y-115954819D01*
X222369047Y-115954819D02*
X222464285Y-115907200D01*
X222464285Y-115907200D02*
X222511904Y-115859580D01*
X222511904Y-115859580D02*
X222559523Y-115764342D01*
X222559523Y-115764342D02*
X222559523Y-114954819D01*
X223464285Y-115288152D02*
X223464285Y-115954819D01*
X223226190Y-114907200D02*
X222988095Y-115621485D01*
X222988095Y-115621485D02*
X223607142Y-115621485D01*
X218454819Y-100309523D02*
X219169104Y-100309523D01*
X219169104Y-100309523D02*
X219311961Y-100357142D01*
X219311961Y-100357142D02*
X219407200Y-100452380D01*
X219407200Y-100452380D02*
X219454819Y-100595237D01*
X219454819Y-100595237D02*
X219454819Y-100690475D01*
X219454819Y-99309523D02*
X219454819Y-99880951D01*
X219454819Y-99595237D02*
X218454819Y-99595237D01*
X218454819Y-99595237D02*
X218597676Y-99690475D01*
X218597676Y-99690475D02*
X218692914Y-99785713D01*
X218692914Y-99785713D02*
X218740533Y-99880951D01*
X218454819Y-98690475D02*
X218454819Y-98595237D01*
X218454819Y-98595237D02*
X218502438Y-98499999D01*
X218502438Y-98499999D02*
X218550057Y-98452380D01*
X218550057Y-98452380D02*
X218645295Y-98404761D01*
X218645295Y-98404761D02*
X218835771Y-98357142D01*
X218835771Y-98357142D02*
X219073866Y-98357142D01*
X219073866Y-98357142D02*
X219264342Y-98404761D01*
X219264342Y-98404761D02*
X219359580Y-98452380D01*
X219359580Y-98452380D02*
X219407200Y-98499999D01*
X219407200Y-98499999D02*
X219454819Y-98595237D01*
X219454819Y-98595237D02*
X219454819Y-98690475D01*
X219454819Y-98690475D02*
X219407200Y-98785713D01*
X219407200Y-98785713D02*
X219359580Y-98833332D01*
X219359580Y-98833332D02*
X219264342Y-98880951D01*
X219264342Y-98880951D02*
X219073866Y-98928570D01*
X219073866Y-98928570D02*
X218835771Y-98928570D01*
X218835771Y-98928570D02*
X218645295Y-98880951D01*
X218645295Y-98880951D02*
X218550057Y-98833332D01*
X218550057Y-98833332D02*
X218502438Y-98785713D01*
X218502438Y-98785713D02*
X218454819Y-98690475D01*
X211592857Y-91149999D02*
X211592857Y-90395714D01*
X212912857Y-90772856D02*
X211592857Y-90772856D01*
X212535714Y-90018571D02*
X212535714Y-89390000D01*
X212912857Y-90144285D02*
X211592857Y-89704285D01*
X211592857Y-89704285D02*
X212912857Y-89264285D01*
X211592857Y-88258571D02*
X211592857Y-88509999D01*
X211592857Y-88509999D02*
X211655714Y-88635713D01*
X211655714Y-88635713D02*
X211718571Y-88698571D01*
X211718571Y-88698571D02*
X211907142Y-88824285D01*
X211907142Y-88824285D02*
X212158571Y-88887142D01*
X212158571Y-88887142D02*
X212661428Y-88887142D01*
X212661428Y-88887142D02*
X212787142Y-88824285D01*
X212787142Y-88824285D02*
X212850000Y-88761428D01*
X212850000Y-88761428D02*
X212912857Y-88635713D01*
X212912857Y-88635713D02*
X212912857Y-88384285D01*
X212912857Y-88384285D02*
X212850000Y-88258571D01*
X212850000Y-88258571D02*
X212787142Y-88195713D01*
X212787142Y-88195713D02*
X212661428Y-88132856D01*
X212661428Y-88132856D02*
X212347142Y-88132856D01*
X212347142Y-88132856D02*
X212221428Y-88195713D01*
X212221428Y-88195713D02*
X212158571Y-88258571D01*
X212158571Y-88258571D02*
X212095714Y-88384285D01*
X212095714Y-88384285D02*
X212095714Y-88635713D01*
X212095714Y-88635713D02*
X212158571Y-88761428D01*
X212158571Y-88761428D02*
X212221428Y-88824285D01*
X212221428Y-88824285D02*
X212347142Y-88887142D01*
X211592857Y-86938570D02*
X211592857Y-87567142D01*
X211592857Y-87567142D02*
X212221428Y-87629999D01*
X212221428Y-87629999D02*
X212158571Y-87567142D01*
X212158571Y-87567142D02*
X212095714Y-87441428D01*
X212095714Y-87441428D02*
X212095714Y-87127142D01*
X212095714Y-87127142D02*
X212158571Y-87001428D01*
X212158571Y-87001428D02*
X212221428Y-86938570D01*
X212221428Y-86938570D02*
X212347142Y-86875713D01*
X212347142Y-86875713D02*
X212661428Y-86875713D01*
X212661428Y-86875713D02*
X212787142Y-86938570D01*
X212787142Y-86938570D02*
X212850000Y-87001428D01*
X212850000Y-87001428D02*
X212912857Y-87127142D01*
X212912857Y-87127142D02*
X212912857Y-87441428D01*
X212912857Y-87441428D02*
X212850000Y-87567142D01*
X212850000Y-87567142D02*
X212787142Y-87629999D01*
X212158571Y-86121427D02*
X212095714Y-86247142D01*
X212095714Y-86247142D02*
X212032857Y-86309999D01*
X212032857Y-86309999D02*
X211907142Y-86372856D01*
X211907142Y-86372856D02*
X211844285Y-86372856D01*
X211844285Y-86372856D02*
X211718571Y-86309999D01*
X211718571Y-86309999D02*
X211655714Y-86247142D01*
X211655714Y-86247142D02*
X211592857Y-86121427D01*
X211592857Y-86121427D02*
X211592857Y-85869999D01*
X211592857Y-85869999D02*
X211655714Y-85744285D01*
X211655714Y-85744285D02*
X211718571Y-85681427D01*
X211718571Y-85681427D02*
X211844285Y-85618570D01*
X211844285Y-85618570D02*
X211907142Y-85618570D01*
X211907142Y-85618570D02*
X212032857Y-85681427D01*
X212032857Y-85681427D02*
X212095714Y-85744285D01*
X212095714Y-85744285D02*
X212158571Y-85869999D01*
X212158571Y-85869999D02*
X212158571Y-86121427D01*
X212158571Y-86121427D02*
X212221428Y-86247142D01*
X212221428Y-86247142D02*
X212284285Y-86309999D01*
X212284285Y-86309999D02*
X212410000Y-86372856D01*
X212410000Y-86372856D02*
X212661428Y-86372856D01*
X212661428Y-86372856D02*
X212787142Y-86309999D01*
X212787142Y-86309999D02*
X212850000Y-86247142D01*
X212850000Y-86247142D02*
X212912857Y-86121427D01*
X212912857Y-86121427D02*
X212912857Y-85869999D01*
X212912857Y-85869999D02*
X212850000Y-85744285D01*
X212850000Y-85744285D02*
X212787142Y-85681427D01*
X212787142Y-85681427D02*
X212661428Y-85618570D01*
X212661428Y-85618570D02*
X212410000Y-85618570D01*
X212410000Y-85618570D02*
X212284285Y-85681427D01*
X212284285Y-85681427D02*
X212221428Y-85744285D01*
X212221428Y-85744285D02*
X212158571Y-85869999D01*
X211592857Y-84487142D02*
X211592857Y-84738570D01*
X211592857Y-84738570D02*
X211655714Y-84864284D01*
X211655714Y-84864284D02*
X211718571Y-84927142D01*
X211718571Y-84927142D02*
X211907142Y-85052856D01*
X211907142Y-85052856D02*
X212158571Y-85115713D01*
X212158571Y-85115713D02*
X212661428Y-85115713D01*
X212661428Y-85115713D02*
X212787142Y-85052856D01*
X212787142Y-85052856D02*
X212850000Y-84989999D01*
X212850000Y-84989999D02*
X212912857Y-84864284D01*
X212912857Y-84864284D02*
X212912857Y-84612856D01*
X212912857Y-84612856D02*
X212850000Y-84487142D01*
X212850000Y-84487142D02*
X212787142Y-84424284D01*
X212787142Y-84424284D02*
X212661428Y-84361427D01*
X212661428Y-84361427D02*
X212347142Y-84361427D01*
X212347142Y-84361427D02*
X212221428Y-84424284D01*
X212221428Y-84424284D02*
X212158571Y-84487142D01*
X212158571Y-84487142D02*
X212095714Y-84612856D01*
X212095714Y-84612856D02*
X212095714Y-84864284D01*
X212095714Y-84864284D02*
X212158571Y-84989999D01*
X212158571Y-84989999D02*
X212221428Y-85052856D01*
X212221428Y-85052856D02*
X212347142Y-85115713D01*
X218454819Y-90333333D02*
X219169104Y-90333333D01*
X219169104Y-90333333D02*
X219311961Y-90380952D01*
X219311961Y-90380952D02*
X219407200Y-90476190D01*
X219407200Y-90476190D02*
X219454819Y-90619047D01*
X219454819Y-90619047D02*
X219454819Y-90714285D01*
X219454819Y-89809523D02*
X219454819Y-89619047D01*
X219454819Y-89619047D02*
X219407200Y-89523809D01*
X219407200Y-89523809D02*
X219359580Y-89476190D01*
X219359580Y-89476190D02*
X219216723Y-89380952D01*
X219216723Y-89380952D02*
X219026247Y-89333333D01*
X219026247Y-89333333D02*
X218645295Y-89333333D01*
X218645295Y-89333333D02*
X218550057Y-89380952D01*
X218550057Y-89380952D02*
X218502438Y-89428571D01*
X218502438Y-89428571D02*
X218454819Y-89523809D01*
X218454819Y-89523809D02*
X218454819Y-89714285D01*
X218454819Y-89714285D02*
X218502438Y-89809523D01*
X218502438Y-89809523D02*
X218550057Y-89857142D01*
X218550057Y-89857142D02*
X218645295Y-89904761D01*
X218645295Y-89904761D02*
X218883390Y-89904761D01*
X218883390Y-89904761D02*
X218978628Y-89857142D01*
X218978628Y-89857142D02*
X219026247Y-89809523D01*
X219026247Y-89809523D02*
X219073866Y-89714285D01*
X219073866Y-89714285D02*
X219073866Y-89523809D01*
X219073866Y-89523809D02*
X219026247Y-89428571D01*
X219026247Y-89428571D02*
X218978628Y-89380952D01*
X218978628Y-89380952D02*
X218883390Y-89333333D01*
X182416666Y-112999819D02*
X182416666Y-113714104D01*
X182416666Y-113714104D02*
X182369047Y-113856961D01*
X182369047Y-113856961D02*
X182273809Y-113952200D01*
X182273809Y-113952200D02*
X182130952Y-113999819D01*
X182130952Y-113999819D02*
X182035714Y-113999819D01*
X182797619Y-112999819D02*
X183416666Y-112999819D01*
X183416666Y-112999819D02*
X183083333Y-113380771D01*
X183083333Y-113380771D02*
X183226190Y-113380771D01*
X183226190Y-113380771D02*
X183321428Y-113428390D01*
X183321428Y-113428390D02*
X183369047Y-113476009D01*
X183369047Y-113476009D02*
X183416666Y-113571247D01*
X183416666Y-113571247D02*
X183416666Y-113809342D01*
X183416666Y-113809342D02*
X183369047Y-113904580D01*
X183369047Y-113904580D02*
X183321428Y-113952200D01*
X183321428Y-113952200D02*
X183226190Y-113999819D01*
X183226190Y-113999819D02*
X182940476Y-113999819D01*
X182940476Y-113999819D02*
X182845238Y-113952200D01*
X182845238Y-113952200D02*
X182797619Y-113904580D01*
X186704819Y-51083333D02*
X187419104Y-51083333D01*
X187419104Y-51083333D02*
X187561961Y-51130952D01*
X187561961Y-51130952D02*
X187657200Y-51226190D01*
X187657200Y-51226190D02*
X187704819Y-51369047D01*
X187704819Y-51369047D02*
X187704819Y-51464285D01*
X186704819Y-50130952D02*
X186704819Y-50607142D01*
X186704819Y-50607142D02*
X187181009Y-50654761D01*
X187181009Y-50654761D02*
X187133390Y-50607142D01*
X187133390Y-50607142D02*
X187085771Y-50511904D01*
X187085771Y-50511904D02*
X187085771Y-50273809D01*
X187085771Y-50273809D02*
X187133390Y-50178571D01*
X187133390Y-50178571D02*
X187181009Y-50130952D01*
X187181009Y-50130952D02*
X187276247Y-50083333D01*
X187276247Y-50083333D02*
X187514342Y-50083333D01*
X187514342Y-50083333D02*
X187609580Y-50130952D01*
X187609580Y-50130952D02*
X187657200Y-50178571D01*
X187657200Y-50178571D02*
X187704819Y-50273809D01*
X187704819Y-50273809D02*
X187704819Y-50511904D01*
X187704819Y-50511904D02*
X187657200Y-50607142D01*
X187657200Y-50607142D02*
X187609580Y-50654761D01*
X177931009Y-74464285D02*
X177931009Y-74130952D01*
X178454819Y-73988095D02*
X178454819Y-74464285D01*
X178454819Y-74464285D02*
X177454819Y-74464285D01*
X177454819Y-74464285D02*
X177454819Y-73988095D01*
X178407200Y-73607142D02*
X178454819Y-73464285D01*
X178454819Y-73464285D02*
X178454819Y-73226190D01*
X178454819Y-73226190D02*
X178407200Y-73130952D01*
X178407200Y-73130952D02*
X178359580Y-73083333D01*
X178359580Y-73083333D02*
X178264342Y-73035714D01*
X178264342Y-73035714D02*
X178169104Y-73035714D01*
X178169104Y-73035714D02*
X178073866Y-73083333D01*
X178073866Y-73083333D02*
X178026247Y-73130952D01*
X178026247Y-73130952D02*
X177978628Y-73226190D01*
X177978628Y-73226190D02*
X177931009Y-73416666D01*
X177931009Y-73416666D02*
X177883390Y-73511904D01*
X177883390Y-73511904D02*
X177835771Y-73559523D01*
X177835771Y-73559523D02*
X177740533Y-73607142D01*
X177740533Y-73607142D02*
X177645295Y-73607142D01*
X177645295Y-73607142D02*
X177550057Y-73559523D01*
X177550057Y-73559523D02*
X177502438Y-73511904D01*
X177502438Y-73511904D02*
X177454819Y-73416666D01*
X177454819Y-73416666D02*
X177454819Y-73178571D01*
X177454819Y-73178571D02*
X177502438Y-73035714D01*
X178454819Y-72607142D02*
X177454819Y-72607142D01*
X177454819Y-72607142D02*
X177454819Y-72226190D01*
X177454819Y-72226190D02*
X177502438Y-72130952D01*
X177502438Y-72130952D02*
X177550057Y-72083333D01*
X177550057Y-72083333D02*
X177645295Y-72035714D01*
X177645295Y-72035714D02*
X177788152Y-72035714D01*
X177788152Y-72035714D02*
X177883390Y-72083333D01*
X177883390Y-72083333D02*
X177931009Y-72130952D01*
X177931009Y-72130952D02*
X177978628Y-72226190D01*
X177978628Y-72226190D02*
X177978628Y-72607142D01*
X178550057Y-71845238D02*
X178550057Y-71083333D01*
X178454819Y-70369047D02*
X178454819Y-70845237D01*
X178454819Y-70845237D02*
X177454819Y-70845237D01*
X177931009Y-70035713D02*
X177931009Y-69702380D01*
X178454819Y-69559523D02*
X178454819Y-70035713D01*
X178454819Y-70035713D02*
X177454819Y-70035713D01*
X177454819Y-70035713D02*
X177454819Y-69559523D01*
X177931009Y-68797618D02*
X177931009Y-69130951D01*
X178454819Y-69130951D02*
X177454819Y-69130951D01*
X177454819Y-69130951D02*
X177454819Y-68654761D01*
X177454819Y-68416665D02*
X177454819Y-67845237D01*
X178454819Y-68130951D02*
X177454819Y-68130951D01*
X178454819Y-66988094D02*
X178454819Y-67559522D01*
X178454819Y-67273808D02*
X177454819Y-67273808D01*
X177454819Y-67273808D02*
X177597676Y-67369046D01*
X177597676Y-67369046D02*
X177692914Y-67464284D01*
X177692914Y-67464284D02*
X177740533Y-67559522D01*
X212190476Y-114454819D02*
X212190476Y-115169104D01*
X212190476Y-115169104D02*
X212142857Y-115311961D01*
X212142857Y-115311961D02*
X212047619Y-115407200D01*
X212047619Y-115407200D02*
X211904762Y-115454819D01*
X211904762Y-115454819D02*
X211809524Y-115454819D01*
X213190476Y-115454819D02*
X212619048Y-115454819D01*
X212904762Y-115454819D02*
X212904762Y-114454819D01*
X212904762Y-114454819D02*
X212809524Y-114597676D01*
X212809524Y-114597676D02*
X212714286Y-114692914D01*
X212714286Y-114692914D02*
X212619048Y-114740533D01*
X213571429Y-114550057D02*
X213619048Y-114502438D01*
X213619048Y-114502438D02*
X213714286Y-114454819D01*
X213714286Y-114454819D02*
X213952381Y-114454819D01*
X213952381Y-114454819D02*
X214047619Y-114502438D01*
X214047619Y-114502438D02*
X214095238Y-114550057D01*
X214095238Y-114550057D02*
X214142857Y-114645295D01*
X214142857Y-114645295D02*
X214142857Y-114740533D01*
X214142857Y-114740533D02*
X214095238Y-114883390D01*
X214095238Y-114883390D02*
X213523810Y-115454819D01*
X213523810Y-115454819D02*
X214142857Y-115454819D01*
X190833333Y-106204819D02*
X190500000Y-105728628D01*
X190261905Y-106204819D02*
X190261905Y-105204819D01*
X190261905Y-105204819D02*
X190642857Y-105204819D01*
X190642857Y-105204819D02*
X190738095Y-105252438D01*
X190738095Y-105252438D02*
X190785714Y-105300057D01*
X190785714Y-105300057D02*
X190833333Y-105395295D01*
X190833333Y-105395295D02*
X190833333Y-105538152D01*
X190833333Y-105538152D02*
X190785714Y-105633390D01*
X190785714Y-105633390D02*
X190738095Y-105681009D01*
X190738095Y-105681009D02*
X190642857Y-105728628D01*
X190642857Y-105728628D02*
X190261905Y-105728628D01*
X191690476Y-105204819D02*
X191500000Y-105204819D01*
X191500000Y-105204819D02*
X191404762Y-105252438D01*
X191404762Y-105252438D02*
X191357143Y-105300057D01*
X191357143Y-105300057D02*
X191261905Y-105442914D01*
X191261905Y-105442914D02*
X191214286Y-105633390D01*
X191214286Y-105633390D02*
X191214286Y-106014342D01*
X191214286Y-106014342D02*
X191261905Y-106109580D01*
X191261905Y-106109580D02*
X191309524Y-106157200D01*
X191309524Y-106157200D02*
X191404762Y-106204819D01*
X191404762Y-106204819D02*
X191595238Y-106204819D01*
X191595238Y-106204819D02*
X191690476Y-106157200D01*
X191690476Y-106157200D02*
X191738095Y-106109580D01*
X191738095Y-106109580D02*
X191785714Y-106014342D01*
X191785714Y-106014342D02*
X191785714Y-105776247D01*
X191785714Y-105776247D02*
X191738095Y-105681009D01*
X191738095Y-105681009D02*
X191690476Y-105633390D01*
X191690476Y-105633390D02*
X191595238Y-105585771D01*
X191595238Y-105585771D02*
X191404762Y-105585771D01*
X191404762Y-105585771D02*
X191309524Y-105633390D01*
X191309524Y-105633390D02*
X191261905Y-105681009D01*
X191261905Y-105681009D02*
X191214286Y-105776247D01*
X212333333Y-107109580D02*
X212285714Y-107157200D01*
X212285714Y-107157200D02*
X212142857Y-107204819D01*
X212142857Y-107204819D02*
X212047619Y-107204819D01*
X212047619Y-107204819D02*
X211904762Y-107157200D01*
X211904762Y-107157200D02*
X211809524Y-107061961D01*
X211809524Y-107061961D02*
X211761905Y-106966723D01*
X211761905Y-106966723D02*
X211714286Y-106776247D01*
X211714286Y-106776247D02*
X211714286Y-106633390D01*
X211714286Y-106633390D02*
X211761905Y-106442914D01*
X211761905Y-106442914D02*
X211809524Y-106347676D01*
X211809524Y-106347676D02*
X211904762Y-106252438D01*
X211904762Y-106252438D02*
X212047619Y-106204819D01*
X212047619Y-106204819D02*
X212142857Y-106204819D01*
X212142857Y-106204819D02*
X212285714Y-106252438D01*
X212285714Y-106252438D02*
X212333333Y-106300057D01*
X213190476Y-106538152D02*
X213190476Y-107204819D01*
X212952381Y-106157200D02*
X212714286Y-106871485D01*
X212714286Y-106871485D02*
X213333333Y-106871485D01*
X193972857Y-51649999D02*
X193972857Y-50895714D01*
X195292857Y-51272856D02*
X193972857Y-51272856D01*
X194915714Y-50518571D02*
X194915714Y-49890000D01*
X195292857Y-50644285D02*
X193972857Y-50204285D01*
X193972857Y-50204285D02*
X195292857Y-49764285D01*
X193972857Y-48758571D02*
X193972857Y-49009999D01*
X193972857Y-49009999D02*
X194035714Y-49135713D01*
X194035714Y-49135713D02*
X194098571Y-49198571D01*
X194098571Y-49198571D02*
X194287142Y-49324285D01*
X194287142Y-49324285D02*
X194538571Y-49387142D01*
X194538571Y-49387142D02*
X195041428Y-49387142D01*
X195041428Y-49387142D02*
X195167142Y-49324285D01*
X195167142Y-49324285D02*
X195230000Y-49261428D01*
X195230000Y-49261428D02*
X195292857Y-49135713D01*
X195292857Y-49135713D02*
X195292857Y-48884285D01*
X195292857Y-48884285D02*
X195230000Y-48758571D01*
X195230000Y-48758571D02*
X195167142Y-48695713D01*
X195167142Y-48695713D02*
X195041428Y-48632856D01*
X195041428Y-48632856D02*
X194727142Y-48632856D01*
X194727142Y-48632856D02*
X194601428Y-48695713D01*
X194601428Y-48695713D02*
X194538571Y-48758571D01*
X194538571Y-48758571D02*
X194475714Y-48884285D01*
X194475714Y-48884285D02*
X194475714Y-49135713D01*
X194475714Y-49135713D02*
X194538571Y-49261428D01*
X194538571Y-49261428D02*
X194601428Y-49324285D01*
X194601428Y-49324285D02*
X194727142Y-49387142D01*
X193972857Y-47438570D02*
X193972857Y-48067142D01*
X193972857Y-48067142D02*
X194601428Y-48129999D01*
X194601428Y-48129999D02*
X194538571Y-48067142D01*
X194538571Y-48067142D02*
X194475714Y-47941428D01*
X194475714Y-47941428D02*
X194475714Y-47627142D01*
X194475714Y-47627142D02*
X194538571Y-47501428D01*
X194538571Y-47501428D02*
X194601428Y-47438570D01*
X194601428Y-47438570D02*
X194727142Y-47375713D01*
X194727142Y-47375713D02*
X195041428Y-47375713D01*
X195041428Y-47375713D02*
X195167142Y-47438570D01*
X195167142Y-47438570D02*
X195230000Y-47501428D01*
X195230000Y-47501428D02*
X195292857Y-47627142D01*
X195292857Y-47627142D02*
X195292857Y-47941428D01*
X195292857Y-47941428D02*
X195230000Y-48067142D01*
X195230000Y-48067142D02*
X195167142Y-48129999D01*
X194538571Y-46621427D02*
X194475714Y-46747142D01*
X194475714Y-46747142D02*
X194412857Y-46809999D01*
X194412857Y-46809999D02*
X194287142Y-46872856D01*
X194287142Y-46872856D02*
X194224285Y-46872856D01*
X194224285Y-46872856D02*
X194098571Y-46809999D01*
X194098571Y-46809999D02*
X194035714Y-46747142D01*
X194035714Y-46747142D02*
X193972857Y-46621427D01*
X193972857Y-46621427D02*
X193972857Y-46369999D01*
X193972857Y-46369999D02*
X194035714Y-46244285D01*
X194035714Y-46244285D02*
X194098571Y-46181427D01*
X194098571Y-46181427D02*
X194224285Y-46118570D01*
X194224285Y-46118570D02*
X194287142Y-46118570D01*
X194287142Y-46118570D02*
X194412857Y-46181427D01*
X194412857Y-46181427D02*
X194475714Y-46244285D01*
X194475714Y-46244285D02*
X194538571Y-46369999D01*
X194538571Y-46369999D02*
X194538571Y-46621427D01*
X194538571Y-46621427D02*
X194601428Y-46747142D01*
X194601428Y-46747142D02*
X194664285Y-46809999D01*
X194664285Y-46809999D02*
X194790000Y-46872856D01*
X194790000Y-46872856D02*
X195041428Y-46872856D01*
X195041428Y-46872856D02*
X195167142Y-46809999D01*
X195167142Y-46809999D02*
X195230000Y-46747142D01*
X195230000Y-46747142D02*
X195292857Y-46621427D01*
X195292857Y-46621427D02*
X195292857Y-46369999D01*
X195292857Y-46369999D02*
X195230000Y-46244285D01*
X195230000Y-46244285D02*
X195167142Y-46181427D01*
X195167142Y-46181427D02*
X195041428Y-46118570D01*
X195041428Y-46118570D02*
X194790000Y-46118570D01*
X194790000Y-46118570D02*
X194664285Y-46181427D01*
X194664285Y-46181427D02*
X194601428Y-46244285D01*
X194601428Y-46244285D02*
X194538571Y-46369999D01*
X193972857Y-44987142D02*
X193972857Y-45238570D01*
X193972857Y-45238570D02*
X194035714Y-45364284D01*
X194035714Y-45364284D02*
X194098571Y-45427142D01*
X194098571Y-45427142D02*
X194287142Y-45552856D01*
X194287142Y-45552856D02*
X194538571Y-45615713D01*
X194538571Y-45615713D02*
X195041428Y-45615713D01*
X195041428Y-45615713D02*
X195167142Y-45552856D01*
X195167142Y-45552856D02*
X195230000Y-45489999D01*
X195230000Y-45489999D02*
X195292857Y-45364284D01*
X195292857Y-45364284D02*
X195292857Y-45112856D01*
X195292857Y-45112856D02*
X195230000Y-44987142D01*
X195230000Y-44987142D02*
X195167142Y-44924284D01*
X195167142Y-44924284D02*
X195041428Y-44861427D01*
X195041428Y-44861427D02*
X194727142Y-44861427D01*
X194727142Y-44861427D02*
X194601428Y-44924284D01*
X194601428Y-44924284D02*
X194538571Y-44987142D01*
X194538571Y-44987142D02*
X194475714Y-45112856D01*
X194475714Y-45112856D02*
X194475714Y-45364284D01*
X194475714Y-45364284D02*
X194538571Y-45489999D01*
X194538571Y-45489999D02*
X194601428Y-45552856D01*
X194601428Y-45552856D02*
X194727142Y-45615713D01*
X190416666Y-77704819D02*
X190416666Y-78419104D01*
X190416666Y-78419104D02*
X190369047Y-78561961D01*
X190369047Y-78561961D02*
X190273809Y-78657200D01*
X190273809Y-78657200D02*
X190130952Y-78704819D01*
X190130952Y-78704819D02*
X190035714Y-78704819D01*
X191321428Y-78038152D02*
X191321428Y-78704819D01*
X191083333Y-77657200D02*
X190845238Y-78371485D01*
X190845238Y-78371485D02*
X191464285Y-78371485D01*
X223083333Y-107109580D02*
X223035714Y-107157200D01*
X223035714Y-107157200D02*
X222892857Y-107204819D01*
X222892857Y-107204819D02*
X222797619Y-107204819D01*
X222797619Y-107204819D02*
X222654762Y-107157200D01*
X222654762Y-107157200D02*
X222559524Y-107061961D01*
X222559524Y-107061961D02*
X222511905Y-106966723D01*
X222511905Y-106966723D02*
X222464286Y-106776247D01*
X222464286Y-106776247D02*
X222464286Y-106633390D01*
X222464286Y-106633390D02*
X222511905Y-106442914D01*
X222511905Y-106442914D02*
X222559524Y-106347676D01*
X222559524Y-106347676D02*
X222654762Y-106252438D01*
X222654762Y-106252438D02*
X222797619Y-106204819D01*
X222797619Y-106204819D02*
X222892857Y-106204819D01*
X222892857Y-106204819D02*
X223035714Y-106252438D01*
X223035714Y-106252438D02*
X223083333Y-106300057D01*
X223416667Y-106204819D02*
X224035714Y-106204819D01*
X224035714Y-106204819D02*
X223702381Y-106585771D01*
X223702381Y-106585771D02*
X223845238Y-106585771D01*
X223845238Y-106585771D02*
X223940476Y-106633390D01*
X223940476Y-106633390D02*
X223988095Y-106681009D01*
X223988095Y-106681009D02*
X224035714Y-106776247D01*
X224035714Y-106776247D02*
X224035714Y-107014342D01*
X224035714Y-107014342D02*
X223988095Y-107109580D01*
X223988095Y-107109580D02*
X223940476Y-107157200D01*
X223940476Y-107157200D02*
X223845238Y-107204819D01*
X223845238Y-107204819D02*
X223559524Y-107204819D01*
X223559524Y-107204819D02*
X223464286Y-107157200D01*
X223464286Y-107157200D02*
X223416667Y-107109580D01*
X195704819Y-59333333D02*
X196419104Y-59333333D01*
X196419104Y-59333333D02*
X196561961Y-59380952D01*
X196561961Y-59380952D02*
X196657200Y-59476190D01*
X196657200Y-59476190D02*
X196704819Y-59619047D01*
X196704819Y-59619047D02*
X196704819Y-59714285D01*
X196133390Y-58714285D02*
X196085771Y-58809523D01*
X196085771Y-58809523D02*
X196038152Y-58857142D01*
X196038152Y-58857142D02*
X195942914Y-58904761D01*
X195942914Y-58904761D02*
X195895295Y-58904761D01*
X195895295Y-58904761D02*
X195800057Y-58857142D01*
X195800057Y-58857142D02*
X195752438Y-58809523D01*
X195752438Y-58809523D02*
X195704819Y-58714285D01*
X195704819Y-58714285D02*
X195704819Y-58523809D01*
X195704819Y-58523809D02*
X195752438Y-58428571D01*
X195752438Y-58428571D02*
X195800057Y-58380952D01*
X195800057Y-58380952D02*
X195895295Y-58333333D01*
X195895295Y-58333333D02*
X195942914Y-58333333D01*
X195942914Y-58333333D02*
X196038152Y-58380952D01*
X196038152Y-58380952D02*
X196085771Y-58428571D01*
X196085771Y-58428571D02*
X196133390Y-58523809D01*
X196133390Y-58523809D02*
X196133390Y-58714285D01*
X196133390Y-58714285D02*
X196181009Y-58809523D01*
X196181009Y-58809523D02*
X196228628Y-58857142D01*
X196228628Y-58857142D02*
X196323866Y-58904761D01*
X196323866Y-58904761D02*
X196514342Y-58904761D01*
X196514342Y-58904761D02*
X196609580Y-58857142D01*
X196609580Y-58857142D02*
X196657200Y-58809523D01*
X196657200Y-58809523D02*
X196704819Y-58714285D01*
X196704819Y-58714285D02*
X196704819Y-58523809D01*
X196704819Y-58523809D02*
X196657200Y-58428571D01*
X196657200Y-58428571D02*
X196609580Y-58380952D01*
X196609580Y-58380952D02*
X196514342Y-58333333D01*
X196514342Y-58333333D02*
X196323866Y-58333333D01*
X196323866Y-58333333D02*
X196228628Y-58380952D01*
X196228628Y-58380952D02*
X196181009Y-58428571D01*
X196181009Y-58428571D02*
X196133390Y-58523809D01*
X198954819Y-55333333D02*
X199669104Y-55333333D01*
X199669104Y-55333333D02*
X199811961Y-55380952D01*
X199811961Y-55380952D02*
X199907200Y-55476190D01*
X199907200Y-55476190D02*
X199954819Y-55619047D01*
X199954819Y-55619047D02*
X199954819Y-55714285D01*
X198954819Y-54428571D02*
X198954819Y-54619047D01*
X198954819Y-54619047D02*
X199002438Y-54714285D01*
X199002438Y-54714285D02*
X199050057Y-54761904D01*
X199050057Y-54761904D02*
X199192914Y-54857142D01*
X199192914Y-54857142D02*
X199383390Y-54904761D01*
X199383390Y-54904761D02*
X199764342Y-54904761D01*
X199764342Y-54904761D02*
X199859580Y-54857142D01*
X199859580Y-54857142D02*
X199907200Y-54809523D01*
X199907200Y-54809523D02*
X199954819Y-54714285D01*
X199954819Y-54714285D02*
X199954819Y-54523809D01*
X199954819Y-54523809D02*
X199907200Y-54428571D01*
X199907200Y-54428571D02*
X199859580Y-54380952D01*
X199859580Y-54380952D02*
X199764342Y-54333333D01*
X199764342Y-54333333D02*
X199526247Y-54333333D01*
X199526247Y-54333333D02*
X199431009Y-54380952D01*
X199431009Y-54380952D02*
X199383390Y-54428571D01*
X199383390Y-54428571D02*
X199335771Y-54523809D01*
X199335771Y-54523809D02*
X199335771Y-54714285D01*
X199335771Y-54714285D02*
X199383390Y-54809523D01*
X199383390Y-54809523D02*
X199431009Y-54857142D01*
X199431009Y-54857142D02*
X199526247Y-54904761D01*
X190511905Y-98204819D02*
X190511905Y-97204819D01*
X190511905Y-97204819D02*
X190750000Y-97204819D01*
X190750000Y-97204819D02*
X190892857Y-97252438D01*
X190892857Y-97252438D02*
X190988095Y-97347676D01*
X190988095Y-97347676D02*
X191035714Y-97442914D01*
X191035714Y-97442914D02*
X191083333Y-97633390D01*
X191083333Y-97633390D02*
X191083333Y-97776247D01*
X191083333Y-97776247D02*
X191035714Y-97966723D01*
X191035714Y-97966723D02*
X190988095Y-98061961D01*
X190988095Y-98061961D02*
X190892857Y-98157200D01*
X190892857Y-98157200D02*
X190750000Y-98204819D01*
X190750000Y-98204819D02*
X190511905Y-98204819D01*
X192035714Y-98204819D02*
X191464286Y-98204819D01*
X191750000Y-98204819D02*
X191750000Y-97204819D01*
X191750000Y-97204819D02*
X191654762Y-97347676D01*
X191654762Y-97347676D02*
X191559524Y-97442914D01*
X191559524Y-97442914D02*
X191464286Y-97490533D01*
X185658095Y-96104819D02*
X185658095Y-95104819D01*
X186229523Y-96104819D02*
X185800952Y-95533390D01*
X186229523Y-95104819D02*
X185658095Y-95676247D01*
X218954819Y-81416666D02*
X219669104Y-81416666D01*
X219669104Y-81416666D02*
X219811961Y-81464285D01*
X219811961Y-81464285D02*
X219907200Y-81559523D01*
X219907200Y-81559523D02*
X219954819Y-81702380D01*
X219954819Y-81702380D02*
X219954819Y-81797618D01*
X219050057Y-80988094D02*
X219002438Y-80940475D01*
X219002438Y-80940475D02*
X218954819Y-80845237D01*
X218954819Y-80845237D02*
X218954819Y-80607142D01*
X218954819Y-80607142D02*
X219002438Y-80511904D01*
X219002438Y-80511904D02*
X219050057Y-80464285D01*
X219050057Y-80464285D02*
X219145295Y-80416666D01*
X219145295Y-80416666D02*
X219240533Y-80416666D01*
X219240533Y-80416666D02*
X219383390Y-80464285D01*
X219383390Y-80464285D02*
X219954819Y-81035713D01*
X219954819Y-81035713D02*
X219954819Y-80416666D01*
X207954819Y-49309523D02*
X206954819Y-49309523D01*
X206954819Y-49309523D02*
X207669104Y-48976190D01*
X207669104Y-48976190D02*
X206954819Y-48642857D01*
X206954819Y-48642857D02*
X207954819Y-48642857D01*
X207954819Y-48023809D02*
X207907200Y-48119047D01*
X207907200Y-48119047D02*
X207859580Y-48166666D01*
X207859580Y-48166666D02*
X207764342Y-48214285D01*
X207764342Y-48214285D02*
X207478628Y-48214285D01*
X207478628Y-48214285D02*
X207383390Y-48166666D01*
X207383390Y-48166666D02*
X207335771Y-48119047D01*
X207335771Y-48119047D02*
X207288152Y-48023809D01*
X207288152Y-48023809D02*
X207288152Y-47880952D01*
X207288152Y-47880952D02*
X207335771Y-47785714D01*
X207335771Y-47785714D02*
X207383390Y-47738095D01*
X207383390Y-47738095D02*
X207478628Y-47690476D01*
X207478628Y-47690476D02*
X207764342Y-47690476D01*
X207764342Y-47690476D02*
X207859580Y-47738095D01*
X207859580Y-47738095D02*
X207907200Y-47785714D01*
X207907200Y-47785714D02*
X207954819Y-47880952D01*
X207954819Y-47880952D02*
X207954819Y-48023809D01*
X207288152Y-47404761D02*
X207288152Y-47023809D01*
X206954819Y-47261904D02*
X207811961Y-47261904D01*
X207811961Y-47261904D02*
X207907200Y-47214285D01*
X207907200Y-47214285D02*
X207954819Y-47119047D01*
X207954819Y-47119047D02*
X207954819Y-47023809D01*
X207954819Y-46547618D02*
X207907200Y-46642856D01*
X207907200Y-46642856D02*
X207859580Y-46690475D01*
X207859580Y-46690475D02*
X207764342Y-46738094D01*
X207764342Y-46738094D02*
X207478628Y-46738094D01*
X207478628Y-46738094D02*
X207383390Y-46690475D01*
X207383390Y-46690475D02*
X207335771Y-46642856D01*
X207335771Y-46642856D02*
X207288152Y-46547618D01*
X207288152Y-46547618D02*
X207288152Y-46404761D01*
X207288152Y-46404761D02*
X207335771Y-46309523D01*
X207335771Y-46309523D02*
X207383390Y-46261904D01*
X207383390Y-46261904D02*
X207478628Y-46214285D01*
X207478628Y-46214285D02*
X207764342Y-46214285D01*
X207764342Y-46214285D02*
X207859580Y-46261904D01*
X207859580Y-46261904D02*
X207907200Y-46309523D01*
X207907200Y-46309523D02*
X207954819Y-46404761D01*
X207954819Y-46404761D02*
X207954819Y-46547618D01*
X207954819Y-45785713D02*
X207288152Y-45785713D01*
X207478628Y-45785713D02*
X207383390Y-45738094D01*
X207383390Y-45738094D02*
X207335771Y-45690475D01*
X207335771Y-45690475D02*
X207288152Y-45595237D01*
X207288152Y-45595237D02*
X207288152Y-45499999D01*
X206954819Y-45261903D02*
X206954819Y-44642856D01*
X206954819Y-44642856D02*
X207335771Y-44976189D01*
X207335771Y-44976189D02*
X207335771Y-44833332D01*
X207335771Y-44833332D02*
X207383390Y-44738094D01*
X207383390Y-44738094D02*
X207431009Y-44690475D01*
X207431009Y-44690475D02*
X207526247Y-44642856D01*
X207526247Y-44642856D02*
X207764342Y-44642856D01*
X207764342Y-44642856D02*
X207859580Y-44690475D01*
X207859580Y-44690475D02*
X207907200Y-44738094D01*
X207907200Y-44738094D02*
X207954819Y-44833332D01*
X207954819Y-44833332D02*
X207954819Y-45119046D01*
X207954819Y-45119046D02*
X207907200Y-45214284D01*
X207907200Y-45214284D02*
X207859580Y-45261903D01*
X190833333Y-109704819D02*
X190500000Y-109228628D01*
X190261905Y-109704819D02*
X190261905Y-108704819D01*
X190261905Y-108704819D02*
X190642857Y-108704819D01*
X190642857Y-108704819D02*
X190738095Y-108752438D01*
X190738095Y-108752438D02*
X190785714Y-108800057D01*
X190785714Y-108800057D02*
X190833333Y-108895295D01*
X190833333Y-108895295D02*
X190833333Y-109038152D01*
X190833333Y-109038152D02*
X190785714Y-109133390D01*
X190785714Y-109133390D02*
X190738095Y-109181009D01*
X190738095Y-109181009D02*
X190642857Y-109228628D01*
X190642857Y-109228628D02*
X190261905Y-109228628D01*
X191738095Y-108704819D02*
X191261905Y-108704819D01*
X191261905Y-108704819D02*
X191214286Y-109181009D01*
X191214286Y-109181009D02*
X191261905Y-109133390D01*
X191261905Y-109133390D02*
X191357143Y-109085771D01*
X191357143Y-109085771D02*
X191595238Y-109085771D01*
X191595238Y-109085771D02*
X191690476Y-109133390D01*
X191690476Y-109133390D02*
X191738095Y-109181009D01*
X191738095Y-109181009D02*
X191785714Y-109276247D01*
X191785714Y-109276247D02*
X191785714Y-109514342D01*
X191785714Y-109514342D02*
X191738095Y-109609580D01*
X191738095Y-109609580D02*
X191690476Y-109657200D01*
X191690476Y-109657200D02*
X191595238Y-109704819D01*
X191595238Y-109704819D02*
X191357143Y-109704819D01*
X191357143Y-109704819D02*
X191261905Y-109657200D01*
X191261905Y-109657200D02*
X191214286Y-109609580D01*
X223083333Y-111859580D02*
X223035714Y-111907200D01*
X223035714Y-111907200D02*
X222892857Y-111954819D01*
X222892857Y-111954819D02*
X222797619Y-111954819D01*
X222797619Y-111954819D02*
X222654762Y-111907200D01*
X222654762Y-111907200D02*
X222559524Y-111811961D01*
X222559524Y-111811961D02*
X222511905Y-111716723D01*
X222511905Y-111716723D02*
X222464286Y-111526247D01*
X222464286Y-111526247D02*
X222464286Y-111383390D01*
X222464286Y-111383390D02*
X222511905Y-111192914D01*
X222511905Y-111192914D02*
X222559524Y-111097676D01*
X222559524Y-111097676D02*
X222654762Y-111002438D01*
X222654762Y-111002438D02*
X222797619Y-110954819D01*
X222797619Y-110954819D02*
X222892857Y-110954819D01*
X222892857Y-110954819D02*
X223035714Y-111002438D01*
X223035714Y-111002438D02*
X223083333Y-111050057D01*
X223464286Y-111050057D02*
X223511905Y-111002438D01*
X223511905Y-111002438D02*
X223607143Y-110954819D01*
X223607143Y-110954819D02*
X223845238Y-110954819D01*
X223845238Y-110954819D02*
X223940476Y-111002438D01*
X223940476Y-111002438D02*
X223988095Y-111050057D01*
X223988095Y-111050057D02*
X224035714Y-111145295D01*
X224035714Y-111145295D02*
X224035714Y-111240533D01*
X224035714Y-111240533D02*
X223988095Y-111383390D01*
X223988095Y-111383390D02*
X223416667Y-111954819D01*
X223416667Y-111954819D02*
X224035714Y-111954819D01*
X190819047Y-80731009D02*
X190961904Y-80778628D01*
X190961904Y-80778628D02*
X191009523Y-80826247D01*
X191009523Y-80826247D02*
X191057142Y-80921485D01*
X191057142Y-80921485D02*
X191057142Y-81064342D01*
X191057142Y-81064342D02*
X191009523Y-81159580D01*
X191009523Y-81159580D02*
X190961904Y-81207200D01*
X190961904Y-81207200D02*
X190866666Y-81254819D01*
X190866666Y-81254819D02*
X190485714Y-81254819D01*
X190485714Y-81254819D02*
X190485714Y-80254819D01*
X190485714Y-80254819D02*
X190819047Y-80254819D01*
X190819047Y-80254819D02*
X190914285Y-80302438D01*
X190914285Y-80302438D02*
X190961904Y-80350057D01*
X190961904Y-80350057D02*
X191009523Y-80445295D01*
X191009523Y-80445295D02*
X191009523Y-80540533D01*
X191009523Y-80540533D02*
X190961904Y-80635771D01*
X190961904Y-80635771D02*
X190914285Y-80683390D01*
X190914285Y-80683390D02*
X190819047Y-80731009D01*
X190819047Y-80731009D02*
X190485714Y-80731009D01*
X191390476Y-80254819D02*
X192057142Y-80254819D01*
X192057142Y-80254819D02*
X191390476Y-81254819D01*
X191390476Y-81254819D02*
X192057142Y-81254819D01*
X192961904Y-81254819D02*
X192390476Y-81254819D01*
X192676190Y-81254819D02*
X192676190Y-80254819D01*
X192676190Y-80254819D02*
X192580952Y-80397676D01*
X192580952Y-80397676D02*
X192485714Y-80492914D01*
X192485714Y-80492914D02*
X192390476Y-80540533D01*
X187509048Y-85533866D02*
X188270953Y-85533866D01*
X187890000Y-85914819D02*
X187890000Y-85152914D01*
X193690476Y-112999819D02*
X193690476Y-113714104D01*
X193690476Y-113714104D02*
X193642857Y-113856961D01*
X193642857Y-113856961D02*
X193547619Y-113952200D01*
X193547619Y-113952200D02*
X193404762Y-113999819D01*
X193404762Y-113999819D02*
X193309524Y-113999819D01*
X194690476Y-113999819D02*
X194119048Y-113999819D01*
X194404762Y-113999819D02*
X194404762Y-112999819D01*
X194404762Y-112999819D02*
X194309524Y-113142676D01*
X194309524Y-113142676D02*
X194214286Y-113237914D01*
X194214286Y-113237914D02*
X194119048Y-113285533D01*
X195642857Y-113999819D02*
X195071429Y-113999819D01*
X195357143Y-113999819D02*
X195357143Y-112999819D01*
X195357143Y-112999819D02*
X195261905Y-113142676D01*
X195261905Y-113142676D02*
X195166667Y-113237914D01*
X195166667Y-113237914D02*
X195071429Y-113285533D01*
X200309524Y-73181009D02*
X200642857Y-73181009D01*
X200785714Y-73704819D02*
X200309524Y-73704819D01*
X200309524Y-73704819D02*
X200309524Y-72704819D01*
X200309524Y-72704819D02*
X200785714Y-72704819D01*
X201166667Y-73657200D02*
X201309524Y-73704819D01*
X201309524Y-73704819D02*
X201547619Y-73704819D01*
X201547619Y-73704819D02*
X201642857Y-73657200D01*
X201642857Y-73657200D02*
X201690476Y-73609580D01*
X201690476Y-73609580D02*
X201738095Y-73514342D01*
X201738095Y-73514342D02*
X201738095Y-73419104D01*
X201738095Y-73419104D02*
X201690476Y-73323866D01*
X201690476Y-73323866D02*
X201642857Y-73276247D01*
X201642857Y-73276247D02*
X201547619Y-73228628D01*
X201547619Y-73228628D02*
X201357143Y-73181009D01*
X201357143Y-73181009D02*
X201261905Y-73133390D01*
X201261905Y-73133390D02*
X201214286Y-73085771D01*
X201214286Y-73085771D02*
X201166667Y-72990533D01*
X201166667Y-72990533D02*
X201166667Y-72895295D01*
X201166667Y-72895295D02*
X201214286Y-72800057D01*
X201214286Y-72800057D02*
X201261905Y-72752438D01*
X201261905Y-72752438D02*
X201357143Y-72704819D01*
X201357143Y-72704819D02*
X201595238Y-72704819D01*
X201595238Y-72704819D02*
X201738095Y-72752438D01*
X202166667Y-73704819D02*
X202166667Y-72704819D01*
X202166667Y-72704819D02*
X202547619Y-72704819D01*
X202547619Y-72704819D02*
X202642857Y-72752438D01*
X202642857Y-72752438D02*
X202690476Y-72800057D01*
X202690476Y-72800057D02*
X202738095Y-72895295D01*
X202738095Y-72895295D02*
X202738095Y-73038152D01*
X202738095Y-73038152D02*
X202690476Y-73133390D01*
X202690476Y-73133390D02*
X202642857Y-73181009D01*
X202642857Y-73181009D02*
X202547619Y-73228628D01*
X202547619Y-73228628D02*
X202166667Y-73228628D01*
X202928572Y-73800057D02*
X203690476Y-73800057D01*
X204500000Y-73704819D02*
X204166667Y-73228628D01*
X203928572Y-73704819D02*
X203928572Y-72704819D01*
X203928572Y-72704819D02*
X204309524Y-72704819D01*
X204309524Y-72704819D02*
X204404762Y-72752438D01*
X204404762Y-72752438D02*
X204452381Y-72800057D01*
X204452381Y-72800057D02*
X204500000Y-72895295D01*
X204500000Y-72895295D02*
X204500000Y-73038152D01*
X204500000Y-73038152D02*
X204452381Y-73133390D01*
X204452381Y-73133390D02*
X204404762Y-73181009D01*
X204404762Y-73181009D02*
X204309524Y-73228628D01*
X204309524Y-73228628D02*
X203928572Y-73228628D01*
X204928572Y-73704819D02*
X204928572Y-72704819D01*
X205928571Y-72752438D02*
X205833333Y-72704819D01*
X205833333Y-72704819D02*
X205690476Y-72704819D01*
X205690476Y-72704819D02*
X205547619Y-72752438D01*
X205547619Y-72752438D02*
X205452381Y-72847676D01*
X205452381Y-72847676D02*
X205404762Y-72942914D01*
X205404762Y-72942914D02*
X205357143Y-73133390D01*
X205357143Y-73133390D02*
X205357143Y-73276247D01*
X205357143Y-73276247D02*
X205404762Y-73466723D01*
X205404762Y-73466723D02*
X205452381Y-73561961D01*
X205452381Y-73561961D02*
X205547619Y-73657200D01*
X205547619Y-73657200D02*
X205690476Y-73704819D01*
X205690476Y-73704819D02*
X205785714Y-73704819D01*
X205785714Y-73704819D02*
X205928571Y-73657200D01*
X205928571Y-73657200D02*
X205976190Y-73609580D01*
X205976190Y-73609580D02*
X205976190Y-73276247D01*
X205976190Y-73276247D02*
X205785714Y-73276247D01*
X206404762Y-73704819D02*
X206404762Y-72704819D01*
X206404762Y-73181009D02*
X206976190Y-73181009D01*
X206976190Y-73704819D02*
X206976190Y-72704819D01*
X207309524Y-72704819D02*
X207880952Y-72704819D01*
X207595238Y-73704819D02*
X207595238Y-72704819D01*
X208738095Y-73704819D02*
X208166667Y-73704819D01*
X208452381Y-73704819D02*
X208452381Y-72704819D01*
X208452381Y-72704819D02*
X208357143Y-72847676D01*
X208357143Y-72847676D02*
X208261905Y-72942914D01*
X208261905Y-72942914D02*
X208166667Y-72990533D01*
X212333333Y-111859580D02*
X212285714Y-111907200D01*
X212285714Y-111907200D02*
X212142857Y-111954819D01*
X212142857Y-111954819D02*
X212047619Y-111954819D01*
X212047619Y-111954819D02*
X211904762Y-111907200D01*
X211904762Y-111907200D02*
X211809524Y-111811961D01*
X211809524Y-111811961D02*
X211761905Y-111716723D01*
X211761905Y-111716723D02*
X211714286Y-111526247D01*
X211714286Y-111526247D02*
X211714286Y-111383390D01*
X211714286Y-111383390D02*
X211761905Y-111192914D01*
X211761905Y-111192914D02*
X211809524Y-111097676D01*
X211809524Y-111097676D02*
X211904762Y-111002438D01*
X211904762Y-111002438D02*
X212047619Y-110954819D01*
X212047619Y-110954819D02*
X212142857Y-110954819D01*
X212142857Y-110954819D02*
X212285714Y-111002438D01*
X212285714Y-111002438D02*
X212333333Y-111050057D01*
X213285714Y-111954819D02*
X212714286Y-111954819D01*
X213000000Y-111954819D02*
X213000000Y-110954819D01*
X213000000Y-110954819D02*
X212904762Y-111097676D01*
X212904762Y-111097676D02*
X212809524Y-111192914D01*
X212809524Y-111192914D02*
X212714286Y-111240533D01*
X190833333Y-102704819D02*
X190500000Y-102228628D01*
X190261905Y-102704819D02*
X190261905Y-101704819D01*
X190261905Y-101704819D02*
X190642857Y-101704819D01*
X190642857Y-101704819D02*
X190738095Y-101752438D01*
X190738095Y-101752438D02*
X190785714Y-101800057D01*
X190785714Y-101800057D02*
X190833333Y-101895295D01*
X190833333Y-101895295D02*
X190833333Y-102038152D01*
X190833333Y-102038152D02*
X190785714Y-102133390D01*
X190785714Y-102133390D02*
X190738095Y-102181009D01*
X190738095Y-102181009D02*
X190642857Y-102228628D01*
X190642857Y-102228628D02*
X190261905Y-102228628D01*
X191214286Y-101800057D02*
X191261905Y-101752438D01*
X191261905Y-101752438D02*
X191357143Y-101704819D01*
X191357143Y-101704819D02*
X191595238Y-101704819D01*
X191595238Y-101704819D02*
X191690476Y-101752438D01*
X191690476Y-101752438D02*
X191738095Y-101800057D01*
X191738095Y-101800057D02*
X191785714Y-101895295D01*
X191785714Y-101895295D02*
X191785714Y-101990533D01*
X191785714Y-101990533D02*
X191738095Y-102133390D01*
X191738095Y-102133390D02*
X191166667Y-102704819D01*
X191166667Y-102704819D02*
X191785714Y-102704819D01*
X201583333Y-59204819D02*
X201250000Y-58728628D01*
X201011905Y-59204819D02*
X201011905Y-58204819D01*
X201011905Y-58204819D02*
X201392857Y-58204819D01*
X201392857Y-58204819D02*
X201488095Y-58252438D01*
X201488095Y-58252438D02*
X201535714Y-58300057D01*
X201535714Y-58300057D02*
X201583333Y-58395295D01*
X201583333Y-58395295D02*
X201583333Y-58538152D01*
X201583333Y-58538152D02*
X201535714Y-58633390D01*
X201535714Y-58633390D02*
X201488095Y-58681009D01*
X201488095Y-58681009D02*
X201392857Y-58728628D01*
X201392857Y-58728628D02*
X201011905Y-58728628D01*
X202535714Y-59204819D02*
X201964286Y-59204819D01*
X202250000Y-59204819D02*
X202250000Y-58204819D01*
X202250000Y-58204819D02*
X202154762Y-58347676D01*
X202154762Y-58347676D02*
X202059524Y-58442914D01*
X202059524Y-58442914D02*
X201964286Y-58490533D01*
X203416666Y-114454819D02*
X203416666Y-115169104D01*
X203416666Y-115169104D02*
X203369047Y-115311961D01*
X203369047Y-115311961D02*
X203273809Y-115407200D01*
X203273809Y-115407200D02*
X203130952Y-115454819D01*
X203130952Y-115454819D02*
X203035714Y-115454819D01*
X203797619Y-114454819D02*
X204464285Y-114454819D01*
X204464285Y-114454819D02*
X204035714Y-115454819D01*
D12*
%TO.C,Q2*%
X204150000Y-52430000D02*
X204150000Y-56030000D01*
X204161522Y-52391522D02*
G75*
G02*
X208600001Y-54230000I1838478J-1838478D01*
G01*
X208600000Y-54230000D02*
G75*
G02*
X204161522Y-56068478I-2600000J0D01*
G01*
%TO.C,J1*%
X209595000Y-74985000D02*
X209595000Y-77745000D01*
X209595000Y-77745000D02*
X214895000Y-77745000D01*
X209705000Y-80405000D02*
X209705000Y-79135000D01*
X210545000Y-77975000D02*
X210545000Y-77745000D01*
X210975000Y-80405000D02*
X209705000Y-80405000D01*
X211405000Y-77975000D02*
X211405000Y-77745000D01*
X212245000Y-77745000D02*
X212245000Y-74985000D01*
X213085000Y-68985000D02*
X213945000Y-68985000D01*
X213085000Y-74985000D02*
X213085000Y-68985000D01*
X213085000Y-78057642D02*
X213085000Y-77745000D01*
X213945000Y-68985000D02*
X213945000Y-74985000D01*
X213945000Y-78057642D02*
X213945000Y-77745000D01*
X214895000Y-74985000D02*
X209595000Y-74985000D01*
X214895000Y-77745000D02*
X214895000Y-74985000D01*
X210545000Y-74985000D02*
X211405000Y-74985000D01*
X211405000Y-68985000D01*
X210545000Y-68985000D01*
X210545000Y-74985000D01*
G36*
X210545000Y-74985000D02*
G01*
X211405000Y-74985000D01*
X211405000Y-68985000D01*
X210545000Y-68985000D01*
X210545000Y-74985000D01*
G37*
%TO.C,U4*%
X217470000Y-114093000D02*
X227950000Y-114093000D01*
X217470000Y-116723000D02*
X218958000Y-116723000D01*
X217470000Y-119013000D02*
X217470000Y-114093000D01*
X220860000Y-114093000D02*
X220860000Y-115990000D01*
X221382000Y-116723000D02*
X221497000Y-116722000D01*
X223922000Y-116722000D02*
X224037000Y-116722000D01*
X224560000Y-114093000D02*
X224560000Y-115990000D01*
X226462000Y-116722000D02*
X227950000Y-116723000D01*
X227950000Y-114093000D02*
X227950000Y-119013000D01*
X227950000Y-119013000D02*
X217470000Y-119013000D01*
%TO.C,J10*%
X220780000Y-95780000D02*
X228020000Y-95780000D01*
X220780000Y-97700000D02*
X220780000Y-95780000D01*
X220780000Y-103720000D02*
X220780000Y-98300000D01*
X222400000Y-95780000D02*
X222400000Y-103720000D01*
X228020000Y-95780000D02*
X228020000Y-103720000D01*
X228020000Y-103720000D02*
X220780000Y-103720000D01*
X220780000Y-98000000D02*
X220170000Y-98440000D01*
X220170000Y-97560000D01*
X220780000Y-98000000D01*
G36*
X220780000Y-98000000D02*
G01*
X220170000Y-98440000D01*
X220170000Y-97560000D01*
X220780000Y-98000000D01*
G37*
D13*
%TO.C,U3*%
X208500000Y-82110000D02*
X211040000Y-82110000D01*
X208500000Y-92270000D02*
X216120000Y-92270000D01*
X213580000Y-82110000D02*
X216120000Y-82110000D01*
X212310000Y-83380000D02*
G75*
G02*
X211040000Y-82110000I-1J1269999D01*
G01*
X213580000Y-82110000D02*
G75*
G02*
X212310000Y-83380000I-1269999J-1D01*
G01*
D12*
%TO.C,J9*%
X220780000Y-86280000D02*
X228020000Y-86280000D01*
X220780000Y-88200000D02*
X220780000Y-86280000D01*
X220780000Y-94220000D02*
X220780000Y-88800000D01*
X222400000Y-86280000D02*
X222400000Y-94220000D01*
X228020000Y-86280000D02*
X228020000Y-94220000D01*
X228020000Y-94220000D02*
X220780000Y-94220000D01*
X220780000Y-88500000D02*
X220170000Y-88940000D01*
X220170000Y-88060000D01*
X220780000Y-88500000D01*
G36*
X220780000Y-88500000D02*
G01*
X220170000Y-88940000D01*
X220170000Y-88060000D01*
X220780000Y-88500000D01*
G37*
%TO.C,J3*%
X176440000Y-114645000D02*
X177860000Y-114645000D01*
X176440000Y-126365000D02*
X176440000Y-114645000D01*
X177860000Y-114645000D02*
X177860000Y-119145000D01*
X177860000Y-119145000D02*
X182750000Y-119145000D01*
X178700000Y-114955000D02*
X179300000Y-114955000D01*
X178750000Y-120255000D02*
X178750000Y-125755000D01*
X178750000Y-125755000D02*
X179250000Y-125755000D01*
X179000000Y-115555000D02*
X178700000Y-114955000D01*
X179250000Y-120255000D02*
X178750000Y-120255000D01*
X179250000Y-125755000D02*
X179250000Y-120255000D01*
X179300000Y-114955000D02*
X179000000Y-115555000D01*
X181250000Y-120255000D02*
X181250000Y-125755000D01*
X181250000Y-125755000D02*
X181750000Y-125755000D01*
X181750000Y-120255000D02*
X181250000Y-120255000D01*
X181750000Y-125755000D02*
X181750000Y-120255000D01*
X182750000Y-126365000D02*
X176440000Y-126365000D01*
X182750000Y-126365000D02*
X189060000Y-126365000D01*
X183750000Y-120255000D02*
X183750000Y-125755000D01*
X183750000Y-125755000D02*
X184250000Y-125755000D01*
X184250000Y-120255000D02*
X183750000Y-120255000D01*
X184250000Y-125755000D02*
X184250000Y-120255000D01*
X186250000Y-120255000D02*
X186250000Y-125755000D01*
X186250000Y-125755000D02*
X186750000Y-125755000D01*
X186750000Y-120255000D02*
X186250000Y-120255000D01*
X186750000Y-125755000D02*
X186750000Y-120255000D01*
X187640000Y-114645000D02*
X187640000Y-119145000D01*
X187640000Y-119145000D02*
X182750000Y-119145000D01*
X189060000Y-114645000D02*
X187640000Y-114645000D01*
X189060000Y-126365000D02*
X189060000Y-114645000D01*
%TO.C,J5*%
X176790000Y-42440000D02*
X188510000Y-42440000D01*
X176790000Y-51250000D02*
X176790000Y-42440000D01*
X176790000Y-51250000D02*
X176790000Y-60060000D01*
X176790000Y-60060000D02*
X188510000Y-60060000D01*
X177400000Y-44750000D02*
X177400000Y-45250000D01*
X177400000Y-45250000D02*
X182900000Y-45250000D01*
X177400000Y-47250000D02*
X177400000Y-47750000D01*
X177400000Y-47750000D02*
X182900000Y-47750000D01*
X177400000Y-49750000D02*
X177400000Y-50250000D01*
X177400000Y-50250000D02*
X182900000Y-50250000D01*
X177400000Y-52250000D02*
X177400000Y-52750000D01*
X177400000Y-52750000D02*
X182900000Y-52750000D01*
X177400000Y-54750000D02*
X177400000Y-55250000D01*
X177400000Y-55250000D02*
X182900000Y-55250000D01*
X177400000Y-57250000D02*
X177400000Y-57750000D01*
X177400000Y-57750000D02*
X182900000Y-57750000D01*
X182900000Y-44750000D02*
X177400000Y-44750000D01*
X182900000Y-45250000D02*
X182900000Y-44750000D01*
X182900000Y-47250000D02*
X177400000Y-47250000D01*
X182900000Y-47750000D02*
X182900000Y-47250000D01*
X182900000Y-49750000D02*
X177400000Y-49750000D01*
X182900000Y-50250000D02*
X182900000Y-49750000D01*
X182900000Y-52250000D02*
X177400000Y-52250000D01*
X182900000Y-52750000D02*
X182900000Y-52250000D01*
X182900000Y-54750000D02*
X177400000Y-54750000D01*
X182900000Y-55250000D02*
X182900000Y-54750000D01*
X182900000Y-57250000D02*
X177400000Y-57250000D01*
X182900000Y-57750000D02*
X182900000Y-57250000D01*
X186000000Y-45000000D02*
X186600000Y-44700000D01*
X186600000Y-44700000D02*
X186600000Y-45300000D01*
X186600000Y-45300000D02*
X186000000Y-45000000D01*
X188510000Y-42440000D02*
X188510000Y-43860000D01*
X188510000Y-43860000D02*
X184010000Y-43860000D01*
X188510000Y-58640000D02*
X184010000Y-58640000D01*
X188510000Y-60060000D02*
X188510000Y-58640000D01*
%TO.C,ESP_LEFT1*%
X176620000Y-75060000D02*
X178000000Y-75060000D01*
X176620000Y-76440000D02*
X176620000Y-75060000D01*
X176620000Y-77710000D02*
X176620000Y-113380000D01*
X176620000Y-77710000D02*
X179380000Y-77710000D01*
X176620000Y-113380000D02*
X179380000Y-113380000D01*
X179380000Y-77710000D02*
X179380000Y-113380000D01*
%TO.C,J12*%
X208690000Y-114645000D02*
X210110000Y-114645000D01*
X208690000Y-126365000D02*
X208690000Y-114645000D01*
X210110000Y-114645000D02*
X210110000Y-119145000D01*
X210110000Y-119145000D02*
X212500000Y-119145000D01*
X210950000Y-114955000D02*
X211550000Y-114955000D01*
X211000000Y-120255000D02*
X211000000Y-125755000D01*
X211000000Y-125755000D02*
X211500000Y-125755000D01*
X211250000Y-115555000D02*
X210950000Y-114955000D01*
X211500000Y-120255000D02*
X211000000Y-120255000D01*
X211500000Y-125755000D02*
X211500000Y-120255000D01*
X211550000Y-114955000D02*
X211250000Y-115555000D01*
X212500000Y-126365000D02*
X208690000Y-126365000D01*
X212500000Y-126365000D02*
X216310000Y-126365000D01*
X213500000Y-120255000D02*
X213500000Y-125755000D01*
X213500000Y-125755000D02*
X214000000Y-125755000D01*
X214000000Y-120255000D02*
X213500000Y-120255000D01*
X214000000Y-125755000D02*
X214000000Y-120255000D01*
X214890000Y-114645000D02*
X214890000Y-119145000D01*
X214890000Y-119145000D02*
X212500000Y-119145000D01*
X216310000Y-114645000D02*
X214890000Y-114645000D01*
X216310000Y-126365000D02*
X216310000Y-114645000D01*
%TO.C,R6*%
X186960000Y-105750000D02*
X187730000Y-105750000D01*
X195040000Y-105750000D02*
X194270000Y-105750000D01*
X194270000Y-107120000D02*
X187730000Y-107120000D01*
X187730000Y-104380000D01*
X194270000Y-104380000D01*
X194270000Y-107120000D01*
%TO.C,C4*%
X207880000Y-105380000D02*
X217120000Y-105380000D01*
X207880000Y-106180000D02*
X207880000Y-105380000D01*
X207880000Y-108120000D02*
X207880000Y-107320000D01*
X217120000Y-105380000D02*
X217120000Y-106180000D01*
X217120000Y-107320000D02*
X217120000Y-108120000D01*
X217120000Y-108120000D02*
X207880000Y-108120000D01*
D13*
%TO.C,U2*%
X190880000Y-42610000D02*
X193420000Y-42610000D01*
X190880000Y-52770000D02*
X198500000Y-52770000D01*
X195960000Y-42610000D02*
X198500000Y-42610000D01*
X194690000Y-43880000D02*
G75*
G02*
X193420000Y-42610000I-1J1269999D01*
G01*
X195960000Y-42610000D02*
G75*
G02*
X194690000Y-43880000I-1269999J-1D01*
G01*
D12*
%TO.C,J4*%
X181940000Y-67635000D02*
X181940000Y-79355000D01*
X181940000Y-79355000D02*
X183360000Y-79355000D01*
X183360000Y-74855000D02*
X190750000Y-74855000D01*
X183360000Y-79355000D02*
X183360000Y-74855000D01*
X184250000Y-68245000D02*
X184250000Y-73745000D01*
X184250000Y-73745000D02*
X184750000Y-73745000D01*
X184750000Y-68245000D02*
X184250000Y-68245000D01*
X184750000Y-73745000D02*
X184750000Y-68245000D01*
X186750000Y-68245000D02*
X186750000Y-73745000D01*
X186750000Y-73745000D02*
X187250000Y-73745000D01*
X187250000Y-68245000D02*
X186750000Y-68245000D01*
X187250000Y-73745000D02*
X187250000Y-68245000D01*
X189250000Y-68245000D02*
X189250000Y-73745000D01*
X189250000Y-73745000D02*
X189750000Y-73745000D01*
X189750000Y-68245000D02*
X189250000Y-68245000D01*
X189750000Y-73745000D02*
X189750000Y-68245000D01*
X190750000Y-67635000D02*
X181940000Y-67635000D01*
X190750000Y-67635000D02*
X199560000Y-67635000D01*
X191750000Y-68245000D02*
X191750000Y-73745000D01*
X191750000Y-73745000D02*
X192250000Y-73745000D01*
X192250000Y-68245000D02*
X191750000Y-68245000D01*
X192250000Y-73745000D02*
X192250000Y-68245000D01*
X194250000Y-68245000D02*
X194250000Y-73745000D01*
X194250000Y-73745000D02*
X194750000Y-73745000D01*
X194750000Y-68245000D02*
X194250000Y-68245000D01*
X194750000Y-73745000D02*
X194750000Y-68245000D01*
X196700000Y-79045000D02*
X197000000Y-78445000D01*
X196750000Y-68245000D02*
X196750000Y-73745000D01*
X196750000Y-73745000D02*
X197250000Y-73745000D01*
X197000000Y-78445000D02*
X197300000Y-79045000D01*
X197250000Y-68245000D02*
X196750000Y-68245000D01*
X197250000Y-73745000D02*
X197250000Y-68245000D01*
X197300000Y-79045000D02*
X196700000Y-79045000D01*
X198140000Y-74855000D02*
X190750000Y-74855000D01*
X198140000Y-79355000D02*
X198140000Y-74855000D01*
X199560000Y-67635000D02*
X199560000Y-79355000D01*
X199560000Y-79355000D02*
X198140000Y-79355000D01*
%TO.C,C3*%
X218630000Y-105380000D02*
X227870000Y-105380000D01*
X218630000Y-106180000D02*
X218630000Y-105380000D01*
X218630000Y-108120000D02*
X218630000Y-107320000D01*
X227870000Y-105380000D02*
X227870000Y-106180000D01*
X227870000Y-107320000D02*
X227870000Y-108120000D01*
X227870000Y-108120000D02*
X218630000Y-108120000D01*
%TO.C,J8*%
X190080000Y-60130000D02*
X190080000Y-58750000D01*
X191460000Y-60130000D02*
X190080000Y-60130000D01*
X192730000Y-57370000D02*
X195380000Y-57370000D01*
X192730000Y-60130000D02*
X192730000Y-57370000D01*
X192730000Y-60130000D02*
X195380000Y-60130000D01*
X195380000Y-60130000D02*
X195380000Y-57370000D01*
%TO.C,J6*%
X190290000Y-56380000D02*
X190290000Y-55000000D01*
X191670000Y-56380000D02*
X190290000Y-56380000D01*
X192940000Y-53620000D02*
X198130000Y-53620000D01*
X192940000Y-56380000D02*
X192940000Y-53620000D01*
X192940000Y-56380000D02*
X198130000Y-56380000D01*
X198130000Y-56380000D02*
X198130000Y-53620000D01*
%TO.C,D1*%
X187260000Y-97750000D02*
X188280000Y-97750000D01*
X189060000Y-96280000D02*
X189060000Y-99220000D01*
X189180000Y-96280000D02*
X189180000Y-99220000D01*
X189300000Y-96280000D02*
X189300000Y-99220000D01*
X194740000Y-97750000D02*
X193720000Y-97750000D01*
X188280000Y-96280000D02*
X193720000Y-96280000D01*
X193720000Y-99220000D01*
X188280000Y-99220000D01*
X188280000Y-96280000D01*
%TO.C,J2*%
X220780000Y-76780000D02*
X228020000Y-76780000D01*
X220780000Y-78700000D02*
X220780000Y-76780000D01*
X220780000Y-84720000D02*
X220780000Y-79300000D01*
X222400000Y-76780000D02*
X222400000Y-84720000D01*
X228020000Y-76780000D02*
X228020000Y-84720000D01*
X228020000Y-84720000D02*
X220780000Y-84720000D01*
X220780000Y-79000000D02*
X220170000Y-79440000D01*
X220170000Y-78560000D01*
X220780000Y-79000000D01*
G36*
X220780000Y-79000000D02*
G01*
X220170000Y-79440000D01*
X220170000Y-78560000D01*
X220780000Y-79000000D01*
G37*
%TO.C,Motor3*%
X201280000Y-42780000D02*
X208520000Y-42780000D01*
X201280000Y-44700000D02*
X201280000Y-42780000D01*
X201280000Y-50720000D02*
X201280000Y-45300000D01*
X202900000Y-42780000D02*
X202900000Y-50720000D01*
X208520000Y-42780000D02*
X208520000Y-50720000D01*
X208520000Y-50720000D02*
X201280000Y-50720000D01*
X201280000Y-45000000D02*
X200670000Y-45440000D01*
X200670000Y-44560000D01*
X201280000Y-45000000D01*
G36*
X201280000Y-45000000D02*
G01*
X200670000Y-45440000D01*
X200670000Y-44560000D01*
X201280000Y-45000000D01*
G37*
%TO.C,R5*%
X186960000Y-109250000D02*
X187730000Y-109250000D01*
X195040000Y-109250000D02*
X194270000Y-109250000D01*
X194270000Y-110620000D02*
X187730000Y-110620000D01*
X187730000Y-107880000D01*
X194270000Y-107880000D01*
X194270000Y-110620000D01*
%TO.C,C2*%
X218630000Y-110130000D02*
X227870000Y-110130000D01*
X218630000Y-110930000D02*
X218630000Y-110130000D01*
X218630000Y-112870000D02*
X218630000Y-112070000D01*
X227870000Y-110130000D02*
X227870000Y-110930000D01*
X227870000Y-112070000D02*
X227870000Y-112870000D01*
X227870000Y-112870000D02*
X218630000Y-112870000D01*
%TO.C,BZ1*%
X197800000Y-88000000D02*
G75*
G02*
X185600000Y-88000000I-6100000J0D01*
G01*
X185600000Y-88000000D02*
G75*
G02*
X197800000Y-88000000I6100000J0D01*
G01*
%TO.C,J11*%
X190690000Y-114645000D02*
X192110000Y-114645000D01*
X190690000Y-126365000D02*
X190690000Y-114645000D01*
X192110000Y-114645000D02*
X192110000Y-119145000D01*
X192110000Y-119145000D02*
X194500000Y-119145000D01*
X192950000Y-114955000D02*
X193550000Y-114955000D01*
X193000000Y-120255000D02*
X193000000Y-125755000D01*
X193000000Y-125755000D02*
X193500000Y-125755000D01*
X193250000Y-115555000D02*
X192950000Y-114955000D01*
X193500000Y-120255000D02*
X193000000Y-120255000D01*
X193500000Y-125755000D02*
X193500000Y-120255000D01*
X193550000Y-114955000D02*
X193250000Y-115555000D01*
X194500000Y-126365000D02*
X190690000Y-126365000D01*
X194500000Y-126365000D02*
X198310000Y-126365000D01*
X195500000Y-120255000D02*
X195500000Y-125755000D01*
X195500000Y-125755000D02*
X196000000Y-125755000D01*
X196000000Y-120255000D02*
X195500000Y-120255000D01*
X196000000Y-125755000D02*
X196000000Y-120255000D01*
X196890000Y-114645000D02*
X196890000Y-119145000D01*
X196890000Y-119145000D02*
X194500000Y-119145000D01*
X198310000Y-114645000D02*
X196890000Y-114645000D01*
X198310000Y-126365000D02*
X198310000Y-114645000D01*
%TO.C,ESP_RIGHT1*%
X202120000Y-75060000D02*
X203500000Y-75060000D01*
X202120000Y-76440000D02*
X202120000Y-75060000D01*
X202120000Y-77710000D02*
X202120000Y-113380000D01*
X202120000Y-77710000D02*
X204880000Y-77710000D01*
X202120000Y-113380000D02*
X204880000Y-113380000D01*
X204880000Y-77710000D02*
X204880000Y-113380000D01*
%TO.C,C1*%
X207880000Y-110130000D02*
X217120000Y-110130000D01*
X207880000Y-110930000D02*
X207880000Y-110130000D01*
X207880000Y-112870000D02*
X207880000Y-112070000D01*
X217120000Y-110130000D02*
X217120000Y-110930000D01*
X217120000Y-112070000D02*
X217120000Y-112870000D01*
X217120000Y-112870000D02*
X207880000Y-112870000D01*
D13*
%TO.C,U1*%
X208380000Y-94610000D02*
X210920000Y-94610000D01*
X208380000Y-104770000D02*
X216000000Y-104770000D01*
X213460000Y-94610000D02*
X216000000Y-94610000D01*
X212190000Y-95880000D02*
G75*
G02*
X210920000Y-94610000I-1J1269999D01*
G01*
X213460000Y-94610000D02*
G75*
G02*
X212190000Y-95880000I-1269999J-1D01*
G01*
D12*
%TO.C,R2*%
X186960000Y-102250000D02*
X187730000Y-102250000D01*
X195040000Y-102250000D02*
X194270000Y-102250000D01*
X194270000Y-103620000D02*
X187730000Y-103620000D01*
X187730000Y-100880000D01*
X194270000Y-100880000D01*
X194270000Y-103620000D01*
%TO.C,R1*%
X198480000Y-57380000D02*
X198480000Y-57710000D01*
X198480000Y-60120000D02*
X198480000Y-59790000D01*
X205020000Y-57380000D02*
X198480000Y-57380000D01*
X205020000Y-57710000D02*
X205020000Y-57380000D01*
X205020000Y-59790000D02*
X205020000Y-60120000D01*
X205020000Y-60120000D02*
X198480000Y-60120000D01*
%TO.C,J7*%
X199690000Y-114645000D02*
X201110000Y-114645000D01*
X199690000Y-126365000D02*
X199690000Y-114645000D01*
X201110000Y-114645000D02*
X201110000Y-119145000D01*
X201110000Y-119145000D02*
X203500000Y-119145000D01*
X201950000Y-114955000D02*
X202550000Y-114955000D01*
X202000000Y-120255000D02*
X202000000Y-125755000D01*
X202000000Y-125755000D02*
X202500000Y-125755000D01*
X202250000Y-115555000D02*
X201950000Y-114955000D01*
X202500000Y-120255000D02*
X202000000Y-120255000D01*
X202500000Y-125755000D02*
X202500000Y-120255000D01*
X202550000Y-114955000D02*
X202250000Y-115555000D01*
X203500000Y-126365000D02*
X199690000Y-126365000D01*
X203500000Y-126365000D02*
X207310000Y-126365000D01*
X204500000Y-120255000D02*
X204500000Y-125755000D01*
X204500000Y-125755000D02*
X205000000Y-125755000D01*
X205000000Y-120255000D02*
X204500000Y-120255000D01*
X205000000Y-125755000D02*
X205000000Y-120255000D01*
X205890000Y-114645000D02*
X205890000Y-119145000D01*
X205890000Y-119145000D02*
X203500000Y-119145000D01*
X207310000Y-114645000D02*
X205890000Y-114645000D01*
X207310000Y-126365000D02*
X207310000Y-114645000D01*
%TD*%
M02*
